<?xml version="1.0" encoding="UTF-8"?>
<svg id="Camada_2" data-name="Camada 2" xmlns="http://www.w3.org/2000/svg" viewBox="0 0 184.73 187.4">
  <defs>
    <style>
      .cls-1 {
        fill: #beb4a4;
      }

      .cls-2 {
        fill: #fff;
      }

      .cls-3 {
        fill: #9dcece;
      }

      .cls-4 {
        fill: #84807f;
      }

      .cls-5 {
        fill: none;
        stroke: #12100c;
        stroke-miterlimit: 22.93;
        stroke-width: .31px;
      }

      .cls-6 {
        fill: #c9e4e5;
      }

      .cls-7 {
        fill: #e30613;
      }

      .cls-8 {
        fill: #837b74;
      }

      .cls-9 {
        fill: #bcb9b8;
      }

      .cls-10 {
        fill: #fad2d4;
      }

      .cls-11 {
        fill: #d4d2d2;
      }

      .cls-12 {
        fill: #619899;
      }

      .cls-13 {
        fill: #f6b2b6;
      }

      .cls-14 {
        fill: #f08589;
      }

      .cls-15 {
        fill: #a4cfd0;
      }

      .cls-16 {
        fill: #12100c;
      }

      .cls-17 {
        fill: #c1b8aa;
      }

      .cls-18 {
        fill: #ededed;
      }
    </style>
  </defs>
  <g id="Camada_1-2" data-name="Camada 1">
    <g>
      <path class="cls-2" d="M83.22,57.55l-.16,.08-.07,.17c-7.24,16.23-26.22,30.71-26.41,30.86l-.31,.23,.16,.35c1.07,2.41,1.35,2.44,1.75,2.3,3.87-1.38,7.07-3.13,8.5-3.97l-.38,6.69,.25,.09-19.03,10.95c-2.09,1.21-4.6,1.44-6.89,.64-2.28-.8-4.1-2.54-4.99-4.79L13.43,45.12c-.81-2.04-.77-4.27,.1-6.28s2.47-3.56,4.51-4.37L78.34,10.65c1.2-.08,3.19,.07,4.41,1.68,1.8,2.36,13,34.44,14.44,38.58l-13.97,6.63h0Z"/>
      <path class="cls-9" d="M78.23,130.2l1.82-1.16,19.11,8.4v3.09l15.92,7.41,12.77-7.88,.23-.14v-1.56l22.45-14.54,1.3,.57,8.67-5.67-.06-21.6,15.77,8.72c.93,.52,1.53,1.46,1.58,2.53,.06,1.07-.43,2.07-1.3,2.68l-53.59,37.71c-3.58,2.52-8.23,2.87-12.14,.91l-61.64-30.77c-.77-.38-1.24-1.13-1.26-1.99-.02-.86,.42-1.62,1.17-2.05l18.17-10.17v19.25l11.02,6.23v.03Z"/>
      <polygon class="cls-4" points="68.19 115.35 55.66 122.17 105.69 147.14 111.59 150.94 116.09 151.92 123.49 149.57 169.01 117.54 160.19 112.77 121.1 104.34 68.19 115.35"/>
      <path class="cls-2" d="M180.56,104.71c1.45,1.37,1.78,2.88,1.83,3.78,.08,1.41-.44,2.76-1.29,3.36l-55.44,39.93c-4.79,3.45-11.06,3.98-16.36,1.37-.61-.29-60.91-28.58-66.36-33.53-1.02-.93-1.52-1.86-1.47-2.76,.05-.91,.65-1.58,.96-1.86l24.8-14.04v2.62l-18.65,10.44c-1.07,.6-1.69,1.69-1.67,2.92,.03,1.23,.7,2.29,1.8,2.84l61.64,30.77c1.82,.91,3.79,1.36,5.74,1.36,2.6,0,5.19-.79,7.4-2.35l53.59-37.71c1.15-.81,1.79-2.13,1.72-3.54-.08-1.4-.86-2.65-2.09-3.33l-16.25-8.98v-2.34l20.1,11.05h0Z"/>
      <path class="cls-6" d="M86.02,58.93c.9,2.24,15.12,37.23,30.47,52.68l-.54,2.52c-2.09-2.39-11.32-13.24-18.65-26.47-8.28-14.94-11.99-24.93-12.02-25.03l-.08-.22-1.47-.48-.21,.29c-.14,.19-13.53,19.03-25.44,28.18-.17-.29-.4-.75-.61-1.21,2.5-1.96,19.46-15.59,26.33-30.83h.02l2.2,.57h0Z"/>
      <path class="cls-12" d="M143.31,36.86v.22l-54.68,26.78c-.05-.11-.09-.22-.14-.32l54.82-26.68h0Z"/>
      <path class="cls-12" d="M146.8,44.23l-54.96,26.77c-.06-.13-.12-.26-.18-.39l55.25-26.64-.11,.27h0Z"/>
      <path class="cls-12" d="M150.15,50.66l-55.15,26.91c-.06-.13-.13-.26-.19-.38l55.47-26.79-.13,.27h0Z"/>
      <path class="cls-12" d="M153.58,56.85l-55.1,27.48c-.04-.08-.09-.17-.13-.25l55.28-27.68-.04,.45h0Z"/>
      <path class="cls-12" d="M156.98,63.04l-54.59,28.32c-.03-.06-.07-.12-.1-.18l54.75-28.71-.06,.57h0Z"/>
      <path class="cls-12" d="M160.51,69.14l-53.77,29.25c-.08-.13-.17-.26-.25-.38l54.07-29.41-.05,.55h0Z"/>
      <path class="cls-12" d="M164.34,75.98l-52.97,28.94c-.09-.12-.19-.24-.28-.36l53.35-29.27-.1,.69Z"/>
      <path class="cls-13" d="M159.46,88.72l.08,29.48-7.5,4.9v-30.29c3.53-1.98,6.21-3.43,7.42-4.08"/>
      <path class="cls-10" d="M100.07,136.78v-27.27c3.61,1.64,7.51,3.41,11.7,5.31h0l1.36,.62,.15-.34,.08,.33,1.43-.36v31.66l-14.67-6.83v-3.1l-.06-.03h.01Z"/>
      <path class="cls-2" d="M90.27,109.49c1.25,1.08,1.54,3.38,1.59,4.73l-4.93-1.67c.07-.5,.35-1.9,1.31-2.64,.54-.42,1.22-.56,2.03-.43"/>
      <path class="cls-10" d="M87.94,109.53c-1.34,1.04-1.51,3.09-1.52,3.17v.19l5.45,1.85v.22l-.87-.3h-.02l-4.91-1.67c.05-.64,.3-2.81,1.45-3.71,.46-.36,1.01-.47,1.66-.34,.04,0,.08,.03,.12,.04-.51,.06-.96,.25-1.36,.55"/>
      <polygon class="cls-2" points="90.51 115.02 90.51 132.57 87.25 131.13 87.25 113.91 90.51 115.02"/>
      <path class="cls-6" d="M91,122.78c.13,.5,.58,.87,1.12,.87,.64,0,1.16-.52,1.16-1.16s-.52-1.16-1.16-1.16c-.54,0-.99,.37-1.12,.87v-7.01l1.33,.45,.02-.32c.02-.25,.34-6.15-3.07-6.86-.79-.17-1.49-.02-2.07,.43-1.52,1.2-1.65,4.14-1.65,4.26v.18l1.19,.41v17.18l-2.58-1.13v-17.33c0-2.33,.91-4.47,2.39-5.59,1.03-.78,2.3-1.03,3.7-.75,3.91,2.13,3.61,9.27,3.61,9.36l-.45,18.38-2.43-1.07v-10.01h.01Z"/>
      <path class="cls-10" d="M91.45,122.48c0-.37,.3-.67,.67-.67s.67,.3,.67,.67-.3,.67-.67,.67-.67-.3-.67-.67"/>
      <path class="cls-10" d="M68.19,95.07c1.68,.75,4.95,2.23,9.78,4.41v29.44l-9.78-5.53v-28.32Z"/>
      <path class="cls-13" d="M78.46,99.7c.32,.15,.66,.3,1,.45v28.1l-1,.64v-29.18h0Z"/>
      <path class="cls-10" d="M80.44,100.6c2.74,1.24,5.89,2.67,9.45,4.28-.11-.04-.22-.08-.33-.11-1.79-.5-3.44-.23-4.76,.77-1.65,1.25-2.68,3.62-2.68,6.17v17.16l-1.68-.74v-27.54h0Z"/>
      <path class="cls-15" d="M83.09,111.72c0-2.25,.88-4.32,2.29-5.39,.89-.68,1.94-.93,3.12-.77-.81,.11-1.56,.41-2.23,.92-1.59,1.21-2.58,3.5-2.58,5.98v17.12l-.6-.27v-17.59h0Z"/>
      <path class="cls-10" d="M90.91,105.35c2.53,1.15,5.26,2.39,8.19,3.72v27.28l-4.7-2.07,.46-18.77c.02-.34,.32-7.68-3.95-10.16"/>
      <path class="cls-1" d="M113.47,114.4c-.03-.58-.06-1.24-.09-1.78,.49,.59,.91,1.08,1.25,1.48l-1.17,.29h.01Z"/>
      <path class="cls-2" d="M112.87,112c0,.42,.04,1.12,.11,2.29l-.57-.26c-17.09-7.76-39.29-17.84-44.21-20.03v-.09l-.88-.32,.32-5.72,40.73,18.42c1.73,2.29,3.28,4.23,4.5,5.71"/>
      <path class="cls-18" d="M68.06,87.53l.59-.3,38.59,17.56c.17,.23,.34,.46,.51,.69l-39.7-17.95h.01Z"/>
      <path class="cls-2" d="M91.56,83.36l-.34,13.06-6.5-2.96v-11.87c0-1.48,.62-2.88,1.62-3.66,.81-.63,1.83-.84,2.97-.63,2.46,1.66,2.26,6,2.26,6.06"/>
      <path class="cls-13" d="M86.03,77.54c-1.13,.88-1.81,2.4-1.81,4.05v11.65l-.66-.3v-12.16c0-1.41,.58-2.73,1.53-3.47,.78-.61,1.79-.8,2.91-.55-.73,.08-1.39,.34-1.97,.78"/>
      <path class="cls-10" d="M92.18,96.86l.35-13.46c0-.13,.08-1.63-.35-3.28,1.26,2.47,2.68,5.15,4.27,8.02,3.09,5.58,6.52,10.75,9.62,15.04l-13.89-6.32h0Z"/>
      <path class="cls-10" d="M88.39,75.84c-1.88-.47-3.16,.12-3.91,.7-1.19,.93-1.9,2.51-1.9,4.24v11.71l-13.93-6.34c3.2-2.65,12.37-10.72,17.14-19.64,1.05,2.47,2.68,6.15,4.96,10.76-.58-.65-1.35-1.17-2.36-1.42"/>
      <path class="cls-3" d="M66.93,86.28c-.15,.09-2.59,1.63-6.1,3.15,10.59-8.98,21.62-24.05,23.27-26.34l.34,.11c.13,.34,.41,1.06,.85,2.13-5.45,10.82-17.93,20.61-18.36,20.95"/>
      <polygon class="cls-13" points="132.84 122.17 134.58 123.03 128.02 127.04 128.02 125.09 132.84 122.17"/>
      <polygon class="cls-13" points="135.45 123.28 135.45 123.03 139.04 120.83 139.05 120.82 150.13 114.05 150.13 122.88 127.76 137.86 127.23 127.04 135.22 123.17 135.45 123.28"/>
      <path class="cls-13" d="M139.11,118.36l8.79-5.33,1.71,.81-10.56,6.45c.02-.37,.04-.97,.06-1.93"/>
      <path class="cls-14" d="M151.55,123.2l-.57-.25v-29.55c.19-.11,.38-.22,.57-.32v30.12h0Z"/>
      <path class="cls-10" d="M150.01,113.49l-1.87-.89v-17.59c.64-.37,1.27-.72,1.87-1.07v19.54h0Z"/>
      <path class="cls-6" d="M147.64,112.62l-8.52,5.17c0-.53,0-1.15,.01-1.88l7.17-4.07v-15.78c.45-.26,.9-.52,1.34-.77v17.33h0Z"/>
      <path class="cls-2" d="M145.81,111.56l-6.68,3.79c0-3.04-.02-7.74-.09-15.03,2.34-1.4,4.62-2.74,6.77-3.98v15.21h0Z"/>
      <path class="cls-13" d="M138.56,100.61c.07,7.8,.13,18.86,.02,19.98l-3.25,1.98v-20c1.08-.66,2.16-1.32,3.23-1.96"/>
      <path class="cls-13" d="M134.84,122.62l-1.62-.8v-17.94c.54-.34,1.08-.67,1.62-1v19.75h0Z"/>
      <path class="cls-6" d="M132.73,121.66l-4.71,2.85v-1.96l3.58-2.03v-15.64c.37-.24,.75-.47,1.12-.7v17.49h.01Z"/>
      <path class="cls-2" d="M131.12,120.23l-3.09,1.76v-14.8h-.04c1.04-.67,2.08-1.34,3.14-2.01v15.05h-.01Z"/>
      <path class="cls-13" d="M127.23,137.24l.75,2.08-12.96,7.82v-32.47c.23,.26,.36,.41,.37,.42l.3,.34,.36-.28c3.14-2.43,7.28-5.31,11.17-7.86v29.95h.01Z"/>
      <path class="cls-18" d="M97.63,50.72c-1.57-4.52-12.64-36.23-14.5-38.66-.99-1.3-2.39-1.75-3.58-1.86l3.03-1.2c1.13-.45,2.37-.42,3.48,.09,1.11,.5,1.95,1.41,2.36,2.56l13.26,37.16-4.05,1.92h0Z"/>
      <polygon class="cls-6" points="102.78 40.87 110.24 44.73 102.78 48.27 102.78 40.87"/>
      <path class="cls-6" d="M110.76,40.37l.08,3.41s-.01,.06-.04,.08-.06,.02-.09,0l-8.18-4.23-1.92-1.08v-3.38l10.15,5.19h0Z"/>
      <path class="cls-18" d="M89.24,4.07c.72,.81,1.29,1.76,1.68,2.8l9.82,26.68-1.11,.52v5.06l2.17,1.22v5.87l-12.46-34.92c-.5-1.4-1.52-2.51-2.87-3.12s-2.86-.65-4.24-.11L17.68,33.56c-2.28,.9-4.08,2.64-5.05,4.89-.98,2.25-1.01,4.75-.11,7.03l22.21,56.03c1,2.51,3.03,4.46,5.58,5.35,1,.35,2.03,.52,3.06,.52,1.61,0,3.21-.42,4.63-1.24l19.21-11.05v4.74l-24.73,14c-1.99,.28-7.32,.49-9.2-5L7.34,43.75c-.94-2.37-.91-4.96,.1-7.3s2.87-4.15,5.23-5.09L83.35,3.18c1.5-.6,3.13-.56,4.6,.09,.47,.21,.9,.48,1.29,.79"/>
      <path class="cls-12" d="M159.66,87.5c-1.36,.72-28.04,15-43.18,26.49l.49-2.31c.77-.52,7.04-4.69,16.05-9.92,10.72-6.22,25.59-14.26,34.44-18.8l-.22,.43-7.58,4.11Z"/>
      <path class="cls-6" d="M167.86,82.21c-8.78,4.48-24.1,12.76-35.08,19.13-8.75,5.08-14.91,9.16-15.99,9.88-1.73-1.74-3.44-3.73-5.12-5.9l52.86-28.88c.51,.9,2.6,4.56,3.33,5.77"/>
      <path class="cls-6" d="M164.44,74.73l-53.66,29.44c-1.28-1.71-2.54-3.51-3.77-5.37l53.7-29.21,3.73,5.14h0Z"/>
      <path class="cls-6" d="M160.53,68.06l-54.31,29.54c-1.23-1.9-2.42-3.85-3.58-5.82l54.54-28.29,3.35,4.57h0Z"/>
      <path class="cls-6" d="M157.01,61.93l-54.96,28.82c-1.16-2-2.27-4.01-3.34-5.99l55.06-27.46,3.24,4.63h0Z"/>
      <path class="cls-6" d="M153.58,55.87l-55.47,27.78c-1.02-1.92-1.99-3.81-2.9-5.65l55.16-26.91,3.21,4.78Z"/>
      <path class="cls-6" d="M150.56,49.71l-55.97,27.03c-.91-1.85-1.76-3.63-2.55-5.31l54.97-26.77,3.55,5.04h0Z"/>
      <path class="cls-6" d="M147.12,43.31l-55.67,26.84c-1.01-2.19-1.89-4.17-2.62-5.84l54.64-26.76,3.66,5.76h-.01Z"/>
      <path class="cls-6" d="M143.23,36.36l-54.94,26.74c-.95-2.21-1.57-3.72-1.78-4.24l54.61-26.42,2.1,3.93h.01Z"/>
      <polygon class="cls-6" points="139.46 31.95 140.43 32.22 86.18 58.47 84.5 58.03 139.46 31.95"/>
      <path class="cls-12" d="M111.78,44c.02-.08,.03-.16,.03-.24l-.08-3.39,9.02-4.48-.39,4.04-8.58,4.07Z"/>
      <polygon class="cls-2" points="120.27 35.03 111.24 39.52 101.22 34.4 110.85 29.86 120.27 35.03"/>
      <path class="cls-11" d="M32.51,116.51c-3.02-.57-4.55-4.32-5.9-7.62l-.18-.43L2.95,46.22c-1.32-3.02-2.91-7.46-1.36-11.21,.94-2.28,2.95-4.04,5.99-5.25C36.56,18.21,80.47,1.02,82.64,1.01c1.81,.02,3.54,.61,4.98,1.61-1.45-.5-3.01-.47-4.45,.11L12.49,30.91c-2.49,.99-4.44,2.89-5.5,5.36-1.06,2.46-1.09,5.19-.1,7.68l25.94,65.07c1.58,4.6,5.43,5.44,8.02,5.44,.21,0,.42,0,.61-.02l-.48,.27c-1.06,.6-1.68,1.31-2.04,2.11-.87,.07-3.66,.23-6.42-.3"/>
      <path class="cls-11" d="M183.74,132.36c0,2.58-1.22,5.05-3.27,6.62l-54.69,44.19c-4.77,3.66-11.33,4.29-16.7,1.63l-63.61-33.35c-3.23-1.6-5.3-4.84-5.39-8.45l-.52-20.54c-.01-.48-.04-.94-.06-1.39-.13-2.53-.21-4.22,1.83-5.45-.18,.34-.33,.74-.35,1.2-.06,1.06,.49,2.12,1.63,3.16,5.51,5,64,32.45,66.48,33.61,2.3,1.13,4.78,1.69,7.25,1.69,3.39,0,6.75-1.05,9.61-3.11l55.44-39.93c.98-.69,1.58-2.21,1.49-3.78-.04-.67-.22-1.64-.81-2.66,1.67,1.86,1.68,5.15,1.68,8.6v17.95h0Z"/>
      <polygon class="cls-7" points="111.14 37.93 117.26 34.84 111.06 31.58 104.71 34.66 111.14 37.93"/>
      <polygon class="cls-8" points="110.81 37.21 105.81 34.67 110.81 32.25 110.81 37.21"/>
      <polygon class="cls-17" points="111.3 37.3 111.3 32.26 116.19 34.83 111.3 37.3"/>
      <path class="cls-6" d="M84.71,86.25s4.1-3.16,4.59-8.94c0,0-6.08-1.93-4.59,8.94Z"/>
      <path class="cls-5" d="M84.71,86.25s4.1-3.16,4.59-8.94c0,0-6.08-1.93-4.59,8.94Z"/>
      <path class="cls-6" d="M84.65,85.78v2.61s1.47,.24,1.42-1.57c-.05-1.82-1.42-1.04-1.42-1.04"/>
      <polygon class="cls-6" points="85.78 88.41 86.89 94.45 84.71 93.46 84.65 88.39 85.78 88.41"/>
      <polygon class="cls-5" points="85.78 88.41 86.89 94.45 84.71 93.46 84.65 88.39 85.78 88.41"/>
      <path class="cls-6" d="M88.14,82.45s.65,3.12,3.51,5.43c0,0,1.65-10.3-3.16-10.96,0,0,1.8,.43-.35,5.53h0Z"/>
      <path class="cls-5" d="M88.14,82.45s.65,3.12,3.51,5.43c0,0,1.65-10.3-3.16-10.96,0,0,1.8,.43-.35,5.53h0Z"/>
      <path class="cls-6" d="M91.92,87.01s-1.81,0-1.89,1.38c-.08,1.39,1.83,1.87,1.83,1.87l.06-3.26h0Z"/>
      <path class="cls-5" d="M91.92,87.01s-1.81,0-1.89,1.38c-.08,1.39,1.83,1.87,1.83,1.87l.06-3.26h0Z"/>
      <polygon class="cls-6" points="90.75 89.74 89.3 95.55 91.86 97.13 91.86 90.76 90.75 89.74"/>
      <polygon class="cls-5" points="90.75 89.74 89.3 95.55 91.86 97.13 91.86 90.76 90.75 89.74"/>
      <path class="cls-18" d="M116.33,155.28l-.24,32.12s4.61-.66,11.76-5.92c7.16-5.25,54.54-43.63,54.54-43.63,0,0,2-1.96,1.76-7.46s-.41-22.59-.41-22.59c0,0-.57-1.7-2.4-2.88,0,0,2.36,2.92,1.06,6.07-1.3,3.15-47.82,34.36-47.82,34.36,0,0-10.4,10.12-18.25,9.93"/>
      <polygon class="cls-18" points="52.63 125.95 52.63 156.31 59.45 159.88 59.45 129.57 52.63 125.95"/>
      <polygon class="cls-18" points="61.37 130.18 61.37 160.54 63.79 161.8 63.68 131.4 61.37 130.18"/>
      <polygon class="cls-18" points="39.44 116.76 39.44 145.43 41.86 149.92 41.45 114.42 39.44 116.76"/>
      <polygon class="cls-18" points="109.18 153.32 109.18 185.8 111.59 187.06 111.49 154.55 109.18 153.32"/>
      <path class="cls-9" d="M29.89,114.97l4.67-2.97s2.84,2.6,7.92,1.84l-1.84,1.52-1.21,2.18s-8.48,1.1-9.55-2.58"/>
      <path class="cls-16" d="M183.74,132.36h0c0,2.58-1.22,5.05-3.27,6.62l-54.69,44.19c-4.77,3.66-11.33,4.29-16.7,1.63l-63.61-33.35c-3.23-1.6-5.3-4.84-5.39-8.45l-.52-20.54c-.01-.48-.04-.94-.06-1.39-.13-2.53-.21-4.22,1.83-5.45-.18,.34-.33,.74-.35,1.2-.06,1.06,.49,2.12,1.63,3.16,5.51,5,64,32.45,66.48,33.61,2.3,1.13,4.78,1.69,7.25,1.69,3.39,0,6.75-1.05,9.61-3.11l55.44-39.93c.98-.69,1.58-2.21,1.49-3.78-.04-.67-.22-1.64-.81-2.66,1.67,1.86,1.68,5.15,1.68,8.6v17.95h0Zm-151.23-15.84h0c-3.02-.57-4.55-4.32-5.9-7.62l-.18-.43L2.95,46.22c-1.32-3.02-2.91-7.46-1.36-11.21,.94-2.28,2.95-4.04,5.99-5.25C36.56,18.21,80.47,1.02,82.64,1.01c1.81,.02,3.54,.61,4.98,1.61-1.45-.5-3.01-.47-4.45,.11L12.49,30.91c-2.49,.99-4.44,2.89-5.5,5.36-1.06,2.46-1.09,5.19-.1,7.68l25.94,65.07c1.58,4.6,5.43,5.44,8.02,5.44,.21,0,.42,0,.61-.02l-.48,.27c-1.06,.6-1.68,1.31-2.04,2.11-.87,.07-3.66,.23-6.42-.3h0ZM120.27,35.03h0l-9.03,4.49-10.02-5.12,9.63-4.54,9.41,5.17h0Zm-8.48,8.96h0c.02-.08,.03-.16,.03-.24l-.08-3.39,9.02-4.48-.39,4.04-8.58,4.07Zm27.67-12.05h0l.97,.27-54.25,26.25-1.67-.44,54.95-26.08Zm3.77,4.41h0l-54.94,26.74c-.95-2.21-1.57-3.72-1.78-4.24l54.61-26.42,2.1,3.93h.01Zm3.89,6.94h0l-55.67,26.84c-1.01-2.19-1.89-4.17-2.62-5.84l54.64-26.76,3.66,5.76h-.01Zm3.44,6.39h0l-55.97,27.03c-.91-1.85-1.76-3.63-2.55-5.31l54.97-26.77,3.55,5.04h0Zm3.03,6.18h0l-55.47,27.78c-1.02-1.92-1.99-3.81-2.9-5.65l55.16-26.91,3.21,4.78Zm3.42,6.06h0l-54.96,28.82c-1.16-2-2.27-4.01-3.34-5.99l55.06-27.46,3.24,4.63h0Zm3.52,6.12h0l-54.31,29.54c-1.23-1.9-2.42-3.85-3.58-5.82l54.54-28.29,3.35,4.57h0Zm3.91,6.67h0l-53.66,29.44c-1.28-1.71-2.54-3.51-3.77-5.37l53.7-29.21,3.73,5.14h0Zm3.41,7.48h0c-8.78,4.48-24.1,12.76-35.08,19.13-8.75,5.08-14.91,9.16-15.99,9.88-1.73-1.74-3.44-3.73-5.12-5.9l52.86-28.88c.51,.9,2.6,4.56,3.33,5.77h0Zm-8.19,5.29h0c-1.36,.72-28.04,15-43.18,26.49l.49-2.31c.77-.52,7.04-4.69,16.05-9.92,10.72-6.22,25.59-14.26,34.44-18.8l-.22,.43-7.58,4.11ZM89.24,4.05h0c.72,.81,1.29,1.76,1.68,2.8l9.82,26.68-1.11,.52v5.06l2.17,1.22v5.87l-12.46-34.92c-.5-1.4-1.52-2.51-2.87-3.12s-2.86-.65-4.24-.11L17.68,33.54c-2.28,.9-4.08,2.64-5.05,4.89-.98,2.25-1.01,4.75-.11,7.03l22.21,56.03c1,2.51,3.03,4.46,5.58,5.35,1,.35,2.03,.52,3.06,.52,1.61,0,3.21-.42,4.63-1.24l19.21-11.05v4.74l-24.73,14c-1.99,.28-7.32,.49-9.2-5L7.34,43.73c-.94-2.37-.91-4.96,.1-7.3s2.87-4.15,5.23-5.09L83.35,3.16c1.5-.6,3.13-.56,4.6,.09,.47,.21,.9,.48,1.29,.79h0Zm21.52,36.31h0l.08,3.41s-.01,.06-.04,.08-.06,.02-.09,0l-8.18-4.23-1.92-1.08v-3.38l10.15,5.19h0Zm-7.98,.51h0l7.47,3.86-7.47,3.54v-7.4Zm-5.14,9.84h0c-1.57-4.52-12.64-36.23-14.5-38.66-.99-1.3-2.39-1.75-3.58-1.86l3.03-1.2c1.13-.45,2.37-.42,3.48,.09,1.11,.5,1.95,1.41,2.36,2.56l13.26,37.16-4.05,1.92h0Zm-14.41,6.83h0l-.16,.08-.07,.17c-7.24,16.23-26.22,30.71-26.41,30.86l-.31,.23,.16,.35c1.07,2.41,1.35,2.44,1.75,2.3,3.87-1.38,7.07-3.13,8.5-3.97l-.38,6.69,.25,.09-19.03,10.95c-2.09,1.21-4.6,1.44-6.89,.64-2.28-.8-4.1-2.54-4.99-4.79L13.44,45.1c-.81-2.04-.77-4.27,.1-6.28s2.47-3.56,4.51-4.37L78.35,10.63c1.2-.08,3.19,.07,4.41,1.68,1.8,2.36,13,34.44,14.44,38.58l-13.97,6.63h0Zm43.89,80.62h0v1.21l-11.82,7.29v-31.8c.23,.26,.36,.41,.37,.42l.3,.34,.36-.28c3.14-2.43,6.83-4.99,10.72-7.54v30.36h.07Zm4.01-17.93h0l-3.09,1.76v-14.8h-.04c1.04-.67,2.08-1.34,3.14-2.01v15.05h-.01Zm1.61,1.43h0l-4.71,2.85v-1.96l3.58-2.04v-15.64c.37-.24,.75-.47,1.12-.7v17.49h.01Zm2.11,.95h0l-1.62-.8v-17.94c.54-.34,1.08-.67,1.62-1v19.75h0Zm3.72-22.01h0c.07,7.8,.13,18.86,.02,19.98l-3.25,1.98v-20c1.08-.66,2.16-1.32,3.23-1.96h0Zm7.26,10.94h0l-6.68,3.79c0-3.04-.02-7.74-.09-15.03,2.34-1.4,4.62-2.74,6.77-3.98v15.21h0Zm1.83,1.07h0l-8.52,5.17c0-.53,0-1.15,.01-1.88l7.17-4.07v-15.78c.45-.26,.9-.52,1.34-.77v17.33h0Zm2.36,.87h0l-1.87-.89v-17.59c.64-.37,1.27-.72,1.87-1.07v19.54h0Zm1.55,9.72h0l-.57-.25v-29.55c.19-.11,.38-.22,.57-.32v30.12h0Zm-12.44-4.83h0l8.79-5.33,1.71,.81-10.56,6.45c.02-.37,.04-.97,.06-1.93Zm-3.78,5.04h0v-.26l3.59-2.2h0l11.08-6.77v8.83l-21.98,14.24v-9.63l7.07-4.32,.23,.11h.01Zm-2.49-1.23h0l1.74,.86-6.55,4.01v-1.95l4.81-2.92Zm-54.61,8.03h0l1.82-1.16,19.11,8.4v3.09l15.92,7.41,12.77-7.88,.23-.14v-1.56l22.45-14.54,1.3,.57,8.67-5.67-.06-21.6,15.77,8.72c.93,.52,1.53,1.46,1.58,2.53,.06,1.07-.43,2.07-1.3,2.68l-53.59,37.71c-3.58,2.52-8.23,2.87-12.14,.91l-61.64-30.77c-.77-.38-1.24-1.13-1.26-1.99-.02-.86,.42-1.62,1.17-2.05l18.17-10.17v19.25l11.02,6.23v.03Zm-11.29-43.92h0c-.15,.09-2.59,1.63-6.1,3.15,10.59-8.98,21.62-24.05,23.27-26.34l.34,.11c.13,.34,.41,1.06,.85,2.13-5.45,10.82-17.93,20.61-18.36,20.95Zm21.46-10.44h0c-1.88-.47-3.16,.12-3.91,.7-1.19,.93-1.9,2.51-1.9,4.24v11.71l-13.93-6.34c3.2-2.65,12.37-10.72,17.14-19.64,1.05,2.47,2.68,6.15,4.96,10.76-.58-.65-1.35-1.17-2.36-1.42h0Zm3.79,21.01h0l.35-13.46c0-.13,.08-1.63-.35-3.28,1.26,2.47,2.68,5.15,4.27,8.02,3.09,5.58,6.52,10.75,9.62,15.04l-13.89-6.32h0Zm-6.15-19.32h0c-1.13,.88-1.81,2.4-1.81,4.05v11.65l-.66-.3v-12.16c0-1.41,.58-2.73,1.53-3.47,.78-.61,1.79-.8,2.91-.55-.73,.08-1.39,.34-1.97,.78h0Zm5.53,5.82h0l-.34,13.06-6.5-2.96v-11.87c0-1.48,.62-2.88,1.62-3.66,.81-.63,1.83-.84,2.97-.63,2.46,1.66,2.26,6,2.26,6.06h-.01Zm-23.5,4.17h0l.59-.3,38.59,17.56c.17,.23,.34,.46,.51,.69l-39.7-17.95h.01Zm44.81,24.47h0c0,.42,.04,1.12,.11,2.29l-.57-.26c-17.09-7.76-39.29-17.84-44.21-20.03v-.09l-.88-.32,.32-5.72,40.73,18.42c1.73,2.29,3.28,4.23,4.5,5.71Zm.6,2.4h0c-.03-.58-.06-1.24-.09-1.78,.49,.59,.91,1.08,1.25,1.48l-1.17,.29h.01Zm-22.56-9.04h0c2.53,1.15,5.26,2.39,8.19,3.72v27.28l-4.7-2.07,.46-18.77c.02-.34,.32-7.68-3.95-10.16h0Zm-7.82,6.37h0c0-2.25,.88-4.32,2.29-5.39,.89-.68,1.94-.93,3.12-.77-.81,.11-1.56,.41-2.23,.92-1.59,1.21-2.58,3.5-2.58,5.98v17.12l-.6-.27v-17.59h0Zm-2.65-11.12h0c2.74,1.24,5.89,2.67,9.45,4.28-.11-.04-.22-.08-.33-.11-1.79-.5-3.44-.23-4.76,.77-1.65,1.25-2.68,3.62-2.68,6.17v17.16l-1.68-.74v-27.54h0Zm-1.98-.88h0c.32,.15,.66,.3,1,.45v28.1l-1,.64v-29.18h0Zm-10.27-4.64h0c1.68,.75,4.95,2.23,9.78,4.41v29.44l-9.78-5.53v-28.32h0Zm23.26,27.41h0c0-.37,.3-.67,.67-.67s.67,.3,.67,.67-.3,.67-.67,.67-.67-.3-.67-.67Zm-.45,.29h0c.13,.5,.58,.87,1.12,.87,.64,0,1.16-.52,1.16-1.16s-.52-1.16-1.16-1.16c-.54,0-.99,.37-1.12,.87v-7.01l1.33,.45,.02-.32c.02-.25,.34-6.15-3.07-6.86-.79-.17-1.49-.02-2.07,.43-1.52,1.2-1.65,4.14-1.65,4.26v.18l1.19,.41v17.18l-2.58-1.13v-17.33c0-2.33,.91-4.47,2.39-5.59,1.03-.78,2.3-1.03,3.7-.75,3.91,2.13,3.61,9.27,3.61,9.36l-.45,18.38-2.43-1.07v-10.01h.01Zm-.49-7.76h0v17.55l-3.26-1.44v-17.22l3.26,1.11Zm-2.57-5.49h0c-1.34,1.04-1.51,3.09-1.52,3.17v.19l5.45,1.85v.22l-.87-.3h-.02l-4.91-1.67c.05-.64,.3-2.81,1.45-3.71,.46-.36,1.01-.47,1.66-.34,.04,0,.08,.03,.12,.04-.51,.06-.96,.25-1.36,.55h0Zm2.33-.04h0c1.25,1.08,1.54,3.38,1.59,4.73l-4.93-1.67c.07-.5,.35-1.9,1.31-2.64,.54-.42,1.22-.56,2.03-.43h0Zm9.8,27.29h0v-27.27c3.61,1.64,7.51,3.41,11.7,5.31h0l1.36,.62,.15-.34,.08,.33,1.43-.36v31.66l-14.67-6.83v-3.1l-.06-.03h.01Zm59.39-48.05h0l.08,29.48-7.5,4.9v-30.29c3.53-1.98,6.21-3.43,7.42-4.08h0Zm4.88-12.74h0l-52.97,28.94c-.09-.12-.19-.24-.28-.36l53.35-29.27-.1,.69Zm-3.83-6.84h0l-53.77,29.25c-.08-.13-.17-.26-.25-.38l54.07-29.41-.05,.55h0Zm-3.53-6.11h0l-54.59,28.32c-.03-.06-.07-.12-.1-.18l54.75-28.71-.06,.57h0Zm-3.41-6.19h0l-55.1,27.48c-.04-.08-.09-.17-.13-.25l55.28-27.68-.04,.45h0Zm-3.43-6.19h0l-55.15,26.91c-.06-.13-.13-.26-.19-.38l55.47-26.79-.13,.27h0Zm-3.35-6.44h0l-54.96,26.77c-.06-.13-.12-.26-.18-.39l55.25-26.64-.11,.27h0Zm-3.49-7.37h0v.22l-54.68,26.78c-.05-.11-.09-.22-.14-.32l54.82-26.68h0Zm-57.29,22.07h0c.9,2.24,15.12,37.23,30.47,52.68l-.54,2.52c-2.09-2.39-11.32-13.24-18.65-26.47-8.28-14.94-11.99-24.93-12.02-25.03l-.08-.22-1.47-.48-.21,.29c-.14,.19-13.53,19.03-25.44,28.18-.17-.29-.4-.75-.61-1.21,2.5-1.96,19.46-15.59,26.33-30.83h.02l2.2,.57h0Zm94.54,45.78h0c1.45,1.37,1.78,2.88,1.83,3.78,.08,1.41-.44,2.76-1.29,3.36l-55.44,39.93c-4.79,3.45-11.06,3.98-16.36,1.37-.61-.29-60.91-28.58-66.36-33.53-1.02-.93-1.52-1.86-1.47-2.76,.05-.91,.65-1.58,.96-1.86l24.8-14.04v2.62l-18.65,10.44c-1.07,.6-1.69,1.69-1.67,2.92,.03,1.23,.7,2.29,1.8,2.84l61.64,30.77c1.82,.91,3.79,1.36,5.74,1.36,2.6,0,5.19-.79,7.4-2.35l53.59-37.71c1.15-.81,1.79-2.13,1.72-3.54-.08-1.4-.86-2.65-2.09-3.33l-16.25-8.98v-2.34l20.1,11.05h0Zm1.03-.55l-21.14-11.62v-4.36l7.52-4.09,1.02-1.93-.15-.24c-.53-.83-3.01-5.18-3.5-6.04l.19-1.33-4.03-5.55,.11-1.14-3.64-4.96,.11-1.15-3.52-5.02,.1-1.02-3.42-5.1,.47-.98-3.84-5.46,.37-.93-3.95-6.21-.02-.81-2.49-4.65-2.41-.68-17.98,8.53,.45-4.66-10.95-6.02-9.26,4.37-9.79-26.6c-1.41-3.83-5.1-6.44-9.18-6.5h0C79.63,0,14.65,25.87,7.24,28.82c-3.29,1.31-5.49,3.25-6.53,5.79-1.68,4.1-.02,8.8,1.36,11.95l23.47,62.23,.18,.44c1.37,3.36,3.08,7.53,6.62,8.21,1.64,.31,3.26,.4,4.53,.4,.72,0,1.32-.03,1.75-.05-.21,1.01-.15,2.12-.09,3.31,.02,.44,.05,.89,.06,1.36l.52,20.54c.1,3.97,2.37,7.53,5.92,9.29l63.61,33.35c2.35,1.17,4.91,1.74,7.46,1.74,3.66,0,7.3-1.18,10.29-3.47l54.69-44.19c2.28-1.75,3.65-4.51,3.65-7.39v-17.95c0-4.12,0-8.37-3.13-10.25v.02Z"/>
      <path class="cls-16" d="M111.3,37.3h0v-5.03l4.89,2.57-4.89,2.47h0Zm-.49-.09h0l-5-2.54,5-2.43v4.96h0Zm.33,.72l6.12-3.09-6.2-3.25-6.35,3.08,6.43,3.26h0Z"/>
      <path class="cls-5" d="M84.65,88.39s1.47,.24,1.42-1.57c-.05-1.82-1.42-1.04-1.42-1.04"/>
    </g>
  </g>
</svg>