<?xml version="1.0" encoding="UTF-8"?>
<svg id="Camada_2" data-name="Camada 2" xmlns="http://www.w3.org/2000/svg" xmlns:xlink="http://www.w3.org/1999/xlink" viewBox="0 0 147.24 122.6">
  <defs>
    <style>
      .cls-1, .cls-2 {
        fill: #45452c;
      }

      .cls-3 {
        fill: none;
      }

      .cls-2 {
        fill-rule: evenodd;
      }

      .cls-4 {
        clip-path: url(#clippath);
      }
    </style>
    <clipPath id="clippath">
      <rect class="cls-3" width="147.24" height="122.6"/>
    </clipPath>
  </defs>
  <g id="Camada_1-2" data-name="Camada 1">
    <g class="cls-4">
      <path class="cls-2" d="M64.12,40.15c-.9-.23-1.99-2.04-3.23-3.4-.28-.31-.3-.42-.62-.75-.91-.94-3.17-3.11-4.25-3.73-1.05-.6-2.22-1.19-3.14-1.95,2.28,1.04,2.29,1.4,3.35,1.98,2.73,1.48.95.35,3.12,2.11.52.43.84.88,1.33,1.4,2.21,2.33,1.44.91,3.44,4.33M72.63,44.18c-.69-.52-.78-1.56-.85-2.6l.84-8.41c.8,1.64-.15,3.87-.03,5.93.06,1.01.32,1.81.48,2.74.21,1.23.4,1.77-.45,2.33M50.96,43.95l-1.11-.81.29-.11c.88.44,1.5.82,2.28,1.28,1.1.66,1.37.7,2.02,1.68-2.74-.33-1.07-.06-3.48-2.04M65.79,43.63c.82.42.76.84,1.35,1.66l2.4,3.52c.91,1.26,1.7,3.65,3.8,5.51,1.69,1.5,1.64.71,3.11,3.04,2.37,3.76,5.8,15.17,7.89,16.18-4.27.51-5.25-10.53-9.1-14.98-.44-.51-.75-1.06-1.26-1.7-1.98-2.51-2.06-3.01-3.68-5.42l-4.51-7.81ZM75.59,53.95c-.51-1.71.02-3.52.41-5.11.28-1.14.81-3.44,2.01-3.82-.1,1.24-1.49,4.45-1.83,6.5-.06.39-.11.8-.16,1.21-.2,1.39-.25.99-.43,1.22M86.47,44.48h-1.26c0,.7-.06.95.57,1.45l-.5.19c.48,1.28-.84-.74.27.49l.3.25c-.86.58-.65.94-1.73,1.9l-.35.31s-.07.09-.09.12l-.54,1.06c-.44.75-.88,1.17-1.47,1.76-.97.98-.9.99-2.22,1.42.22-1.56-.16-.36.39-1.22.03-.04.62-.58.71-.66l2.84-2.78s.07-.09.1-.13c.58-.81.5-.98.3-1.92-1.34.71-3.55,3.04-4.25,4.52-1.04,2.18-.91,5.14-1.05,7.7-1.09-2.01-.53-7.27,1.85-10.09.85-1.01,1.18-1.91,3.58-2.49v-2.12c-.76.02-1.45.14-2.02-.16.78-.25,1.02-.49,1.47-1.1.65-.89.33-1.98-.25-2.49-.86.47-1.41,1.92-.7,2.88-.59.48-.67.73-1.05,1.05-.22.18-.81.49-1.1.71-.76.6-1.11,1.34-1.89,1.62-.06-1.59.81-3.74.85-4.89-.82.93-2.09,3.98-3.96,4.13,1.43-.66,3.83-4.79,4.72-6.33-.2.57-.62,1.41-.77,2.2.15-.18-.07.2.28-.41.1-.17.13-.23.23-.46,1.67-3.68,1.96-2.86,3.12-4.85l.58.13c-.52.22-.11-.25-.61.53-.41.63-.34,1.42-.1,1.92.6-.28.81-.53,1.2-1,.04,1.23-.17,2.04.74,2.59.59-.33.57.08.65-1.02.03-.46-.06-.84-.33-1.19-.76-.98-.69-.26-1.11-1.94,1.7.76.35,1.2,1.58,1.91l1.43.32c-.64-1.93-3.38-2.54-3.66-2.74.51-.21,1.02-.47,1.66-.64.03.05.05.12.06.16l.72,1.33c.47.39.78.4,1.4.44.31-1.6-.48-1.53-1.36-2.11,3.7.22,1.51,1.28,2.14,2.89.23.59.92,1.35,1.37,1.64.45-.78.1-2.22-.3-2.93-.01-.02-.27-.42-.31-.49l-.24-.36c2.09.93,2.79,2.2,4.53,3.1-1.98.46-.67,2.97,1.18,3.49-.18-2.19-.69-2.06-1.2-3.36,1.5.7,2.5,1.46,4.44.69-2.96-.77-1.75.34-5.6-2.9-1.68-1.42-2.85-2.05-4.83-2.9-.76-.32-.22.02-.69-.41,4.86-2.51,1.48-2.23,8.03-1.73.02.03.03.09.04.11.23.45.72.7,1.13,1.05l-1.32-.55c-.26,1.41,1.05,2.45,2.03,2.49.18-.39.08-.76-.13-1.13-.21-.37-.35-.48-.57-.83,1.26.56,1.07.86,1.97,1.43-.3.17-.01.03-.53.13-1.39.27.63-.29-.42.06.39,1.21.68,1.72,1.91,1.91-.19-1.23-.61-1.08-.77-2.02,0-.04,0-.11-.01-.15l-.35-.66c-.22-.22-.98-.7-1.35-.94l-1.27-.95c1.87-.15,3.54-.34,5.32-.45,1.99-.13,3.11.47,4.9.77-.76.46-1.13.63-.78,1.97.23.89.74,1.13,1.67,1.28.04-.91.08-1.15-.32-1.92l-.68-1.15c2.17.18,3.35,1.89,5.08,2.38-.34-.84-.9-1.1-1.7-1.65-.81-.56-.96-.66-1.93-1.02-1.67-.63-2.66-.97-4.46-1.46.65-.74,2.18-.98,2.89-1.62-.8-.29-4.16,1.08-5.71,1.2-4.53.37-8.31,1.73-5.26-4.53l1.97-3.25c.91.9,2.03,1.31,3.65.65-.14-.71-.44-.91-1.42-1.1-.77-.15-1.49-.11-2.12.13.47-1.51,1.35-4.07.72-5.75-.77,1.41-.25,3.4-1.77,5.8-.91,1.43-1.82,3.52-2.93,4.57.31-.9.5-1.13.51-2.37-1.36.48-2.13,1.81-1.99,3.47.74-.02.37.1.85-.33l.62-.77c-.48,1.27-.89,2.11-2.01,2.48.14-2.72.97-4.58,2.08-6.39l.18.9c1.44.12,2.11-.41,2.27-1.63-1.08-.12-1.7.37-2.34.73.44-.82,1.15-1.69,1.35-2.66-.47.23-.62.64-1.04.95.22-1.01.23-2.14-.94-2.91-.27.36-.14.03-.37.7l-.18,1.97c.22,1.5.81.59,1.49.25-.41.89-1.17,2-1.99,2.59-.19-1.48-.21-3.09.21-4.6.43-1.52,1.24-2.22,1.64-3.26-1.92.49-2.68,4.17-2.66,6.8.02,1.78-.02,2.67-.41,4.33-.18.74-.21,1.48-.36,2.15-.23.99-.44.72-.67,1.66-.52-.72-.19-.86-.26-1.82-1.01.27-3.31,2.72-1.3,2.45.54-.07.82-.62,1.2-.81-.48,1.66-4.36,3.62-5.23,4.3-.66.52-.6.9-1.58,1.4-1.18-.89-1.44-1.36-1.78-2.99-.31.41-.26-.34-.2.85,0,.01.21.87.22.92.76,2.19,1.98,1.32.04,3.8-1.15,1.47-2.09,3.94-4.93,3.54-.54-1.24-.87-3.15-.71-4.78.26-2.75.28-1.93-.41-4.51-.81-3.06-.42-5.99,1.46-8.61,1.71-2.38,1.41-4.47,4.68-6.25,2.31-1.26,4.16-3.36,6.73-4.17-.45-.34-.07-.29-.84-.19-.03,0-.73.26-.91.31.49-.73.95-.94.96-2.25,1.28.28,1.54.5,2.77.07-.2-.74-.44-.98-1.33-1.31-.85-.31-1.25-.24-2.13-.17-.09.97,0,.88.51,1.32-1.09.23-3.43,2.11-1.74,3.01-1.59.67-2.26,1.57-4.72,2.12.56-3.31,1.39-2.84,2.97-4.44.96-.97,3.43-2.45,3.84-3.35-.9.19-.52.19-1.18.78-.86.76-2.68,1.39-3.42,2.26-.08-.92.64-2.65.8-3.54.3-1.59-.6-2.64-1.84-2.99-.07,2.13.62,2.77,1.47,4.34-.66.43-2.46,3.9-2.98,4.88-.51.95-.81,1.61-1.2,2.68-.34.94-.8,1.82-1.6,2.4-2.76-1.19-1.09-5.42-1.62-6.19-1.57,2.62.74,5.81-.08,8.44-.66,2.14-1.95,4.46-2.78,6.52-1.48-.26-1.48-.94-2.25-1.96-.72-.95-2.01-2.39-2.42-3.74-.35-1.14-.11-.23.02-.71.07-.25.05.08.22-.69.24-1.12.74-2.41.88-3.15l-.12,1.33c1.49-.04,2.4-1.65,2.07-3.01-1.11-.31-1.3.77-1.9,1.64l-.21-1.38c-.42,1.04-1.05,3.95-1.19,5.31l-.38-.53s-.06-.1-.09-.14l-.84-1.88c.33.28.77.8,1.18.75.57-1.4-.26-2.33-1.47-2.59l-.18,1.17c-.94-2.21.41-5.18-.48-7.06l.42-.46c.42-.71-.53-2.93-1.62-3.29-.21.67-.24.97-.12,1.69l.54,1.03-.47.31c-.27.22.01-.25-.21.24.22.57.2,1,.57,1.63,1.28,2.17.82.79.56,5.36-.4-.03-.7-.41-1.03-.76-.4-.42-.65-.76-.9-1.19.99-1.1,1.82-2.13.49-3.28-.64.79-.83,1.89-.71,3.1-.69-.52-.4-.44-1.21-.71,1.2-1.38.81-2.09.19-3.7-1.42.76-.64,2.38-.15,3.43-1.06-.59-1.91-1.56-3.31-1.76,1.07,1.45,3.5,2.58,4.93,4.52.87,1.19,1.53,1.58,1.14,1.77-.69-.85-.93-.94-2.56-.89.21.69.84,1.31,1.69,1.4,1.41.16,1.3-.99,1.78.76-2.07-.73-1.69-.23-1.9.46.41.11.6.24,1.17.11l.94-.61,1.21,3.11c-.89.42-1.97.43-1.73,1.68.78.27.78.13,1.61-.02l.44-1.15c1.45,2.72,4.2,4.62,5.22,7.22-1.05.68-1.98.82-1.89,2.44.09.03-.02.14.63.08,1.16-.11.74-1.47,1.36-2.46.62,2.93,1.31,5.09-.77,7.57-2.05,2.44-3.09,1.01-5.12-1.51,3.56.85,3.01-2.83.76-1.48-.66.4-.59.94-1,1.47-.78-.8-.98-1.07-1.97-1.65.19-.05.45.18.97-.14-.16-1.23-.12-1.4-1.29-1.67.84-.53.59.04,1.05-.61-.33-1.38-.73-1.65-2.36-1.86.15,1.53.1,1.85,1.39,2.14-1.08.55-.45-.04-.77.62.48.95.27.72.97,1.37-2.57-1.41-2.45-2.22-2.22-5.92l.56-.28c1.11-.6,2.21-1.85,2.54-3.18-2.2.34-2.12,1.01-2.93,2.63l.38-2.31c2.06-.74,1.92-2.78,1.12-3.65-.55.9-1.18,1.57-1.53,2.81-.03-.06-.06-.14-.08-.19-.02-.05-.05-.13-.07-.19-.44-1.3.21.81-.12-.38l-.48-1.79c-.37-.92-.75-1.29-1.26-1.76-.03,1.59.79,3.55.85,5.34.07,1.9-.38,3.74-.49,5.67-.78-.08-5.73-2.99-6.57-3.6-4.33-3.14-2.45-2.75-4.5-5.66l.85-1.13c-.03,1.04.11,2.2.95,2.75l.33-.99c.04-.86-.38-1.36-.98-1.85l-.27-.2c.28-.91.35-2.22-.55-2.76-.56,1.17-.68,1.83-.57,3.4-.31-.27-.12-.08-.41-.43l-2.24-2.74c.28.98.85,1.7,1.27,2.5-.92-.46-1.54-1.5-3-.65.31,1.36,1.93,1.85,3.42,1.11.74,1.5,1.18,3.37,2.23,4.65l.99,1.18c-.54.13-2.87-.41-2.65,1.62,1.53.31,2.31-.59,2.83-1.47,1.32,1.54,3.66,2.79,4.64,3.95h-1.49c1.74.97,2.19.15,3.96,2.39,2.92,3.7,6.31,7.43,4.53,12.92-1.56.17-2.11-.7-3.79-.92l.59-.94c.22-.32.26-.17.41-.71.2-.69.07-1.44-.17-1.93-1.02-.32-1.35,1.65-1.14,3.26-1.49-.43-5.18-3.64-7.16-4.17,1.29-.65.2.45,1.14-.25-.52-1.48-.16-1.62-1.73-1.98l.83-.71s.09-.06.11-.14c.02-.08.08-.09.11-.14-.59-.73-.73-.82-1.94-.6.45-.97.99-2.25.02-3.2-.42.21-.3-.18-.61.69-.08.22-.15.84-.15,1.08,0,1,.04,1.28.7,1.46-.69.34-.59.42-1.07.86.37-1.36.11-3.18-1.32-3.2-.16,1.07-.07,2.14.38,2.99.74,1.39.59.45.69.48.47.11-.19-.57.24.16l.08.25s.02.1.05.19l1.63-.22c.07.77-.03.64.37,1.27l.5.62s.07.08.1.12c-1.63-.24-4.29-2.56-4.86-3.78-1.42-3.06-.14-5.16.54-7.02.5.76.58,1.2,1.95.92.94-.19,1.45-.57,1.34-1.35-.93-.7-2.12-.28-2.72.64-.42-.57-.04-.1-.17-.48-.23-.63-.42.19-.15-.76.85-3.11-1.02-2.86-.88.44l.59.23c-.38.72-.62,1.38-1.05,2.08.08-1.26.53-2.97-.49-3.61-.44.89-1,2.67-.21,3.55.23.26.44.15.7.25-.15.68-.15.86-.49,1.52-.84-.9-1.73-2.72-2.46-3.76,1.04-.95,2.3-1.2,1.98-3.18-.14-.83-.03-.26-.21-.55-1.25-.1-1.66,1.69-1.89,3.23-.97-1.93-.95-3.54-1.06-5.9-.35.44-.16-.16-.33.77-.15.84.02,1.76.15,2.58.48,2.85,2.98,7.24,2.6,8.84-1.04.09-2.25-1.22-2.37-2.23,0-.09-.04-.11-.05-.17.04.03.1.08.12.11l.48.43s.09.07.12.09c.33.17.66.1.62-.82-.04-.99-.47-1.84-1.34-2.03-.22.66-.19,1.21.1,1.99-.66.34-.26.1-.67.16.6,1.82,1.37,3.22,2.69,3.87-.79.69-.37.02-.69,1.11-.23.77-.32,1.79.23,2.5.55.72.13.37.87.62.78-2.88-.43-2.07-.55-3.92.68.13.2-.03.64.29.09.06.33.35.44.46.34.34.5.43.86.75,1.59,1.42,4.9,2.87,4.41,5.49-2.65-.03-2.12.44-3.76,1.23-1.47.71-2.62.09-4.06-.07.87,1,1.39.38,2.18,1.19l-3.99,2.98c-.49.61-.83,1.63-1.43,2.22-.65.65-1.65.65-2.35,1.16,2.89-.08,2.37-1.17,5.76-3.21,1.25-.76,1.9-1.38,2.58-1.96.21-.18.03-.04.39-.3.06-.04.22-.15.28-.19.71-.5,1.31-.87,2.22-.97-.22.36-.72,1.47-.88,1.57-.6.38.27.09-.34.03-.4-.04-.95-.16-1.41.09-1.09.58-1.72,1.78-1.99,2.91,1.84-.22,2.78-1.42,3.15-2.97.4.59.28.8.04,1.51l1.42-2.23c.58-.76.93-1.15,2.26-1.06,2.49.16,4.08.37,6.22.79l-.67.58c-.7.71-.31,1.42-.63,2.31-.27.75-1.75,1.11-.82,1.71.02.01.12.1.13.06.02-.04.1.03.14.06-.07.07-.25-.38-.33.79-.03.49.02.59.22.98,1.1,2.2,1.99-.91.04-2.39,1.86-1.37.76-1.02,1.3-2.8.62-.66,1.25-.96,2.6-.8-1.4-.93-4.29-1.28-6.14-1.53-3.06-.4-3.67-.41-6.45.65.04-.05.1-.11.13-.14l2.27-1.22c1.16-.46,1.51-.48,2.93-.49,4.1-.01,7.52,1.2,11.1,2.97,1.73.86,2.27,2.05,3.55,3.29,1.33,1.29,2.56,1.78,4.06,2.99,1.35,1.09,2.3,2.16,3.46,3.37,2.03,2.11,4.09,6.2,4.31,9.32-1.02-2.32-2.93-3.39-4.24-5.31-.48-.7-.8-1.13-1.27-1.92-2.2-3.76-4.39-2.93-6.09-5.05l-.49-.87c-.01-.08-.04-.11-.06-.17l1.29,1.21c1.63,1.26,3.1,1.05,4.26,2.8.58.86,4.04,5.42,4.2,5.34l.16-.28c-.61-.95-1.48-2.01-2.29-3.28-.69-1.07-1.52-2.39-2.4-3.05-.98-.73-2.59-1.07-3.53-1.92-.73-.66-1.87-2.25-2.57-2.8.19,1.01.63,1.14.88,1.97-2.03-1.18-2.07-4.67-7.08-5.9.42.32.81.44,1.13.69,1.84,1.43,3.12,5.33,3.93,7.47,1.02,2.66-.62,3.31-1.17,5.03-.27.86-.27,1.84-.38,2.77-.22,1.88-.13,1.23-1.11,2.13-2.44,2.24-1.21,6.69-6.26,6.85-6.58.22-5.33,1.1-8.22,1.64-.87.16-1.94.15-2.27.87,1.13-.17,2.45-.1,3.67-.08,1.48.02,1.93-.29,3.21-.45,2.57-.34,4,.72,6.58.6,1.03-.05,2.71-.53,3.4-.5.87.03,1.59.72,2.79.87,2.89.35,3.22-.73,6.32.67-.54-2.29-3.83-1.88-6.1-2.65-2.41-.81-3.55-2.11-3.4-5.22.64.31.59.62.92,1.34,1.63,3.53,3.84,4.18,7.43,4.88.44.09,1.26.65,1.31.59l-.1-.71c-.52-.46-1.3-.54-1.91-.81-1.69-.76-5.11-3.52-4.84-5.82,1.1.3,2.6,4.5,5.72,5.4.74.21,1.59.35,2.3.65l4.25,1.44c1.1.3,1.37,1.29,1.94.79l-1.06-.98c-1.01-.92-4.42-1.45-6.49-3.3-1.24-1.11-4-5.28-4.71-6.88-1.1-2.46-1.02-4.02-1-6.91.32.28.17.05.48.59.09.16.21.51.27.67,2.04,5.93,2.15,3.97,4.12,7.01,1.09,1.68,3.48,6.49,5.54,6.97-.11-.6-2.75-3.43-3.48-4.71-.45-.79-1.14-2.07-1.62-2.7-.67-.86-1.35-1.15-1.94-2.16-.52-.9-4.79-11.03-4.78-11.58,1.78,2.22,3.76,6.06,5.25,8.61l4.26,6.42c.53.69.85,1.53,1.69,1.71-.38-2.14-3.78-4.92-4.04-7.68,1.18,1.84,2.33,3.97,3.71,5.74,1.02,1.32,1.98,2.78,3.18,3.86l-2.45-1.6c.35,1.47,4.27,4.69,8.25,4.53l-.34.28c-.06.04-.11.08-.17.12l-.34.18c-1.52.71-3.59.39-4.91-.35.36,1.75,4.68.85,6.26.51.01-.02,0-.07,0-.08v-.21c.5-.97,2.86-.53,3.35-.49l-2.51.29c-.76.21-.55.24-.61.29,1.75.1,3.47-.37,5.53-.1,1.57.21,3.76.72,4.54-.74-1.57.22-2.43.69-3.9-.22,1.01-.12,2.06-.3,3-.39,1.17-.1,2.11.07,3.36-.09,1.49-.18,5.34.1,5.75-.05-.18-.13-.06-.07-.46-.27-5.08-2.61-10.56.36-13.41-.04-3.31-.46-4.12-3.12-5.17-5.75-1.89-4.76-3.78-7.04-2.46-13.09.28-1.27,1.86-1.97,2.7-2.76,1.27-1.21,1.31-1.63,2.28-3.17,1.53-2.4,3.25-2.49,5.79-2.46.93.01,1.53-.27,2.46-.25,3.36.08,6.6.59,9.53,1.43,2.44.7,7.3-.07,7.52,2.73-.62-.17-.7-.86-1.57-1.13-.6,1.6.18,2.91,1.18,3.38.33-.75.26-1.08.24-2.05.66-.2.14-.05.54,0,.11.01.15.08.19.08-2.38-4.42-5.57-2.21-7.14-3.96,1.04-.54,2.86-1.04,3.62-1.67-.83.3-4.23,1.65-5.06,1.52-.69-.1-2.07-.58-2.82-.81-1.22-.37-1.85-.3-2.84-.54.23-.26.1-.15.43-.37l.31-.17c2.06-1.01,2.83-1.57,4.76-2.96l.29.41c.82.96,2.32.69,3.33.49-.03.05-.09.1-.11.12l-.21.25s-.07.09-.1.13c-.03.04-.06.1-.09.14-.32.58-.22,1.55-.05,2.11.86-.34,1.57-1.03,1.45-2.28-.65-1.18-.24-.03-.62-.58-.61-.88,0,.53-.07-.24-.1-1.15.28.47.04-.31-.91-.57-2.08-.57-3.41-.52,2.32-1.62,4.94-1.64,6.33-2.68-1.54-.49-5.48,1.27-6.56,1.8.34-.43.51-.6.84-.95l.92-1.1c-2.46.81-2.45,3.27-6.82,4.96-4.6,1.79-6.64.83-10.21,1.13"/>
      <path class="cls-2" d="M87.22,7.24c1.24-.21.78-.75,1.48-.35.66.37.33.26.49.42-.21.03-.6.07-.76.12-1.45.43,1.19-.5-.33.12l-.31.17c.48,1,1.91,1.88,3.67,1.51.02-.82,0-.72-.79-1.46-.03-.03-.1-.08-.15-.13,1.32-.11,1.86-.15,2.06-1.27-1.5-1.01-2.69-.42-4.05.25.44-.73.95-1.3.85-2.46-1.65.03-2.32,1.28-2.15,3.09M89.19,7.3c.32-.19.75.2.27.08,0,0-.76.21-.27-.08"/>
      <path class="cls-2" d="M83.93,46.38l1.36-.26-1.49.61c.19.94.28,1.1-.3,1.92-.03.04-.07.09-.11.13l-2.84,2.78c-.09.08-.68.61-.71.66-.55.86-.17-.35-.39,1.22,1.32-.43,1.25-.44,2.22-1.42.59-.59,1.03-1.01,1.47-1.76l.54-1.06s.07-.09.09-.12l.35-.31c1.09-.96.87-1.32,1.73-1.9l-.3-.25c-1.1-1.24.21.79-.27-.49l.5-.19c-.63-.49-.57-.75-.57-1.46h1.26s-2.55-.21-2.55-.21v2.12Z"/>
      <path class="cls-2" d="M36.24,35.71c-1.09-.71-1.67-.66-3.07-.55.43,1.78,2.64,2.29,3.45,1.17l.07-.23s-.02-.04,0-.06c.77.4,2.69,1.21,3.63.78l-1.11-.45c-.59-.11-.72-.07-1.32-.28-.39-.14-.65-.27-1.08-.55-1.75-1.13,1.02-.62-.9-2.48-.61-.59-1.36-.78-2.38-.73-.04,1.74,1.22,1.41,2,2.49.32.43-.08.27.71.88M36.24,35.71s.07.03.07.06c0,.01.03.02.03.02,0,0-.1-.13-.09-.08"/>
      <path class="cls-2" d="M54.76,26.07c-.4-.67-1.07-1.33-2.15-1.33.14,1.99.79,1.51,1.72,2.54l.55-.24c1.1-.57.87-.71,1.22-2.23.61,1.55.6,2.1,2.67,2.01-.25-1.23-1.61-3.19-2.65-2.99-.04,0-.27.1-.28.1-.04.02-.4.25-.41.25-.47.4-.54,1.01-.67,1.89"/>
      <path class="cls-2" d="M49.86,38.26c1.64.35,1.8-1.22,2.27-1.92.47-.72,1.63-.95,1.33-2.81-.74.06-.64.35-1.19.22-.65-.16-.25-.59-1.45-.55-1.15.05-1.92,1.07-2.19,1.99,2.59-.19,2-.57,3.51-1.25-.34.86-.73,1.33-.45,2.41-1.32.16-2.34.57-1.83,1.92"/>
      <path class="cls-2" d="M64.39,31.44c-.23-.55-.19-.69-.56-1.29-.45-.74-.42-.77-1.17-.81-.37.95-.49,2.2.48,2.86l.98.54-.09,3.34c.27,1.45.11.63.53,1.03-.1-2.34-.42-4.42.57-6.42.3-.09.84.51,1.54-.27.55-.62.48-1.26.39-2.13-1.18-.05-.9.5-1.5,1.26-.57.73-.87.78-1.16,1.89"/>
      <path class="cls-2" d="M69.48,26.41c.09-1.36-.17-2.46-1.3-2.66-1.09,1.86,2.81,5.32,3.69,1-.46-.29-.32-.1-.95-.43.27-.89.23-1.34-.05-2.05-.67.25-1.19.99-1.24,2.06-.07,1.81.68.81.31,1.64-.45,1-.05.15-.47.44"/>
      <path class="cls-2" d="M49.16,15.44c-.78.53-1.45.52-1.52,1.55,1.95.72,3.95-.75,3.51-3.25-1.62.33-.56.32-1.46,1.44-.35-1.44-.68-2.3-2.31-2.28.29,1.56.52,1.45,1.45,2.23.23.19.2.15.34.31"/>
      <path class="cls-2" d="M56.5,51.43c-.94-.44-2.02-1.28-1.51.97.23.99.54,1.65,1.46,1.86.61-1.03.46-1.72.04-2.82.46.46.8.64,1.5,1.01.53-1.72-.21-3.12-2.07-2.97.03,1.13.2,1.12.56,1.96"/>
      <path class="cls-2" d="M106.59,44.22c1.87-.42.52.65,2.64.55,1.12-.05,1.98-.39,2.26-1.42-1.12-.69-2.09-.35-3.19.07.26-.95.43-.58.5-1.86-1.61.33-2.23.88-2.21,2.66M108.3,43.42c-.13.22-.01.13-.25.39-.25.28-.16.12-.37.24.37-.67.21-.41.62-.64"/>
      <path class="cls-2" d="M96.63,19.38c2.42.18,1.53-.62,2.87-.95l-.32,1.57c1.61-.1,2.39-.81,2.29-2.47-1.41-.12-.82.54-1.96.9.22-.85.37-.56.54-1.76-1.68.24-3.03,1.24-3.41,2.7"/>
      <path class="cls-2" d="M83.36,27.55c-.58-.65-1.26-1.27-2.5-1.54.06,1.24.93,2.56,2.24,2.91.36-.46.33-.67.27-1.37.24.61.21.61.52,1.08.8-.31,1.13-.68,1.08-1.81-.04-.92-.49-1.52-.96-1.88-.6.74-.65,1.66-.64,2.61"/>
      <path class="cls-2" d="M73.82,34.3c1.42.21,2-.46,2.37-1.47l.3.28c.85.84.71.84,1.97,1.36-.08-1.66-.53-2.11-1.73-2.71-.05.02-.09.05-.11.13-.02.08-.08.11-.11.13l-.3.42c-.27.24.93.63-.97.16.78-.22,1.13-.92,1.07-2.18-1.83.34-1.61,2.03-1.77,2.47-.15.41-.59.76-.71,1.41"/>
      <path class="cls-2" d="M95.1,27.56l-.28-.42c-.26-.33.1-.02-.32-.36-.41-.33-.23-.24-.76-.26-1.09,1.33-.43,2.56,1.19,2.71l.18-.8c.02-.25-.05-.4,0-.86,1.39-.82,1.68-1.82,1.25-3.77-2.22.22-1.1,2.39-1.25,3.77"/>
      <path class="cls-2" d="M81.73,23.89c-.69-.41-1.22-.7-2.2-.63-.1,1.54,1.33,2.28,2.98,2.23-.12-.99-.32-.92-.61-1.63,1.53.24,1.39.83,3.32.37-.26-.7-.53-1.17-2.15-1.3-.61-.05-1.4-.11-1.44.55,0,.02.01.09.02.11,0,.02.02.09.03.1l.05.2Z"/>
      <path class="cls-2" d="M41.63,44.49l.44.85c.9,2.27,1.49,1.22,1.5.13.01-1.28-.72-1.65-1.33-2.45l-.5.7s-.11.18-.13.14c-.02-.04-.09.1-.14.14-.21-.95-.21-1.32-1.16-1.53-.24,1.61-.44,2.34.76,3.18l.56-1.16Z"/>
      <path class="cls-2" d="M91.68,51.2c.88-.27.92-.2,1.06-1.25.09-.67.11-1.15-.08-1.73l.73.83s.08.07.12.1c-.43-1.51-.61-1.96-2.23-2.67l-.37.67c-.34.3-1.22.46-1.22,2.37.61-.03,1.18-.16,1.6-.63.45-.5.32-1.12.77-1.69,1.24,1.48-.71,0-.4,3.98M92.56,48.02s.02-.1.05-.08c.46.46-.06.11-.07.12,0,0,.02-.02.02-.03"/>
      <path class="cls-2" d="M86.53,42.36c.54-.85,1.17-.92.64-2.53-1.07.5-1.68,1.34-1.14,2.69-.53.56-.44.66-1.1.91.27-.99.22-1.31-.02-2.28-.96.51-.83,1.12-.65,2.35l-1.14.11c2.16.02,4.44.51,5.04-1.1-.05-.04-.12-.08-.17-.09-.04-.01-.12-.06-.18-.08h-1.28ZM86.28,42.32c.44-.18.11.06.11.07.22.13-.49.09-.11-.07"/>
      <path class="cls-2" d="M106.11,27.63c.24.87.35.73,1.38.98-1.14.71-1.82.53-2.1,2.05,1.64-.11,2.14-.61,3.1-1.57l-.91-.63c.49-.09.97-.19,1.4-.34.01,0,.46-.18.49-.19.56-.31.26-.12.53-.44-1.01-.68-3.13-.58-3.89.13"/>
      <path class="cls-2" d="M81.47,17.26c.96,1.69,3.93.75,4.58.15-1.13-.93-3.35-1.95-4.58-.15"/>
      <path class="cls-2" d="M85.37,22.28c-.87-.27-1.14-.22-2.05,0,.48.71,1.34.86,1.95.59l.61-.66c.65.98,1.71.93,2.93.78-.07-1.09-.41-1.52-1.51-1.74-1.78-.36-1.75.77-1.93,1.04"/>
      <path class="cls-2" d="M41.84,56.17c1.64-.46,3.16-1.84,2.9-3.95-.7-.09-1.6.9-2,1.35-.6.67-.9,1.46-.9,2.6"/>
      <path class="cls-2" d="M104.64,40.27c.28.56.05.4.86.77,1.49.67,2.15,0,2.85-.7.92.22,1.33.35,2.09-.09-.28-.71.37-.14-.55-.61l-2.45-.4v1.08c-1.27-.63-1.57-.5-2.8-.04M107.87,40.36c-.6.17.15-.54.42-.14.31.47-.34.12-.36.12,0,0-.06.01-.06.02"/>
      <path class="cls-2" d="M86.42,13.97c2.31.22,2.96-.02,4.15-1.26-.59-.49-1.38-.78-2.38-.58-1.12.21-1.66.7-1.77,1.84"/>
      <path class="cls-2" d="M76.75,26.55c.8-1.13.3-2.51-.52-3.3,4.49-1.26,3.53-.13,4.69-.52-.23-.21-.33-.38-1.01-.49-.44-.07-.92-.04-1.37,0-.52.05-1.79.32-2.15.61-.42.33-.1.05-.31.37-.96,1.47-.68,2.46.66,3.33"/>
      <path class="cls-2" d="M80.52,5.05l1.14.16-.02,1.39c1.42-.47,1.48-1.63,1-3.02-.5.2-.35.12-.64.55-.13.19-.11.26-.22.45-.21.36-.24.35-.28.39-.28-1.33-.26-2.36-1.54-2.62-.18,1.17.24,1.98.56,2.72"/>
      <path class="cls-2" d="M109.59,32.94c.99,1.31,2.29,1.04,4.1.86-.12-.63-.09-1.19-1.82-1.65-1.16-.3-1.77.27-2.28.79"/>
      <path class="cls-2" d="M34.56,50.69c.33,1.17.41,1.08,1.41,1.65.85.48,1.08.61,2.14.69-.16-2.44-1.09-2.55-3.55-2.34"/>
      <path class="cls-2" d="M82.91,9.46c1.63-.57,1.72-1.98.99-3.67-1.01.13-1.28.34-1.52,1.5-.19.95.17,1.57.52,2.16"/>
      <path class="cls-2" d="M38.25,22.17c-.24.24-.15-.02-.3.42-.21.62-.08,1.36.11,1.96.3.95.65,1.45,1.6,1.57.39-1.45-.33-3.85-1.41-3.96"/>
      <path class="cls-2" d="M72.86,30.93c2.26-.56,2.72.08,3.91-1.84-.93-.67-3.52-.62-3.91,1.84"/>
      <path class="cls-2" d="M69.8,11.01c-.09.74.3,1.63.71,2.01.31.28,1.62.85,2.11.38,1.04-.99-1.68-2.52-2.82-2.38"/>
      <path class="cls-2" d="M73.81,11.08c2.05-.01,2.91-2.09,1.81-3.75-.59.57-2.01,2.37-1.81,3.75"/>
      <path class="cls-2" d="M65.09,11.41c1.95.78,3.17-1.19,3.71-2.41-.74.16-1.93.49-2.53.78-.52.26-1,.62-1.17,1.1-.34.97-.1.23-.01.54"/>
      <path class="cls-2" d="M45.92,52.43c-.71,1.53.73,3.13,1.92,3.12.56-.98.1-3.04-1.92-3.12"/>
      <path class="cls-2" d="M83.69,15.44c.27.28.09.25.72.5.33.13.83.18,1.19.19.83.02,1.72-.15,2.32-.38-.83-1.8-3.14-1.18-3.74-.8-.48.3-.2.03-.49.49"/>
      <path class="cls-2" d="M58.84,7.59c.06-.02,1.04.45,1.08-1.93.02-1.07-.32-1.64-.93-2.08-.22.18-.24-.03-.5.65-.44,1.13,0,2.45.36,3.36"/>
      <path class="cls-2" d="M45.33,34.82c1.38.55,3.7.21,3.31-1.52-1.79-.65-2.84.17-3.31,1.52"/>
      <path class="cls-2" d="M68.24,11.83c-.88.09-4.24,1.25-3.36,2.27,1.29,1.49,3.1-1.34,3.36-2.27"/>
      <path class="cls-2" d="M37.67,40.86c1.41-.12,2.27-1.79,2.16-3.58-1.49.2-2.44,1.68-2.16,3.58"/>
      <path class="cls-2" d="M86.23,18.34c-.47,1.49,1.08,2.64,2.54,2.77.27-1.72-1.16-3.09-2.54-2.77"/>
      <path class="cls-2" d="M85.12,7.96c1.5-.66,1.98-1.84,1.45-3.43-.8-.33-2.22.42-1.45,3.43"/>
      <path class="cls-2" d="M101.63,25.22c-1.82.9-1.5,3.57-.62,3.52.49-.03,2.06-1.47.62-3.52"/>
      <path class="cls-2" d="M38.29,42.72c-.74-.69-.94-.15-.94-.15,0,.03-.04.07-.04.09-.17,1.11.85,3.18,2.33,3.11.23-.41.27.49.15-.66-.07-.7-1.31-2.21-1.5-2.39"/>
      <path class="cls-2" d="M92.96,13.56c1.64.11,3.55-2.07,2.68-2.92-.73-.72-2.67,1.75-2.68,2.92"/>
      <path class="cls-2" d="M94.29,19.75c-.86.26-.82.28-1.02,1.41,1.28-.11,2.94-1.43,1.41-2.04.72-.38.86-.64.81-1.7-1.01-.25-1.96,1.32-1.93,1.67.06.6-.06.22.72.67M94.26,19.38c.22-.2.76.12.23.04,0,0-.47.18-.23-.04"/>
      <path class="cls-2" d="M103.68,35.25c-.01-.77-.13-1.53-.37-2.24-.36-1.07-.38-1.16-1.44-1.29-.21,2.11-.3,3.2,1.81,3.53"/>
      <path class="cls-2" d="M85.59,25.25c1.52.85,3.12-.4,3.48-1.66-1.58-.21-3.94.34-3.48,1.66"/>
      <path class="cls-2" d="M44.88,46.7c.6-.71,1.1-.93,1.23-1.97.12-.97-.1-1.71-.77-2.07-.34.33-.69,1.05-.85,1.73-.15.61-.17.6-.05,1.26l.45,1.05Z"/>
      <path class="cls-2" d="M44.53,20.7c-.45-1.45-1.56-2.48-3.52-2.26.41,1.85,1.35,2.11,3.52,2.26"/>
      <path class="cls-2" d="M31.44,56.41c2.37.12,3-.32,4.09-1.61-.71-.56-1.62-.38-2.43.05-1.01.54-1.37.62-1.66,1.56"/>
      <path class="cls-2" d="M40.56,41.64c1.28-.9,1.64-2.35.78-3.87-.79.23-.94.52-1.18,1.63-.21,1-.11,1.53.4,2.24"/>
      <path class="cls-2" d="M104.88,27.15c1.53.09,2.34-1.71,2.42-3.42-1.79.33-2.28,1.68-2.43,3.15v.27Z"/>
      <path class="cls-2" d="M91.27,14.78c.93.24,2.19-2.81,1.45-3.54-.19-.19.45-.27-.44-.11-.23.04-.36.21-.43.27-.47.46-1.09,2.25-.58,3.38"/>
      <path class="cls-2" d="M70.04,15.81c-.73,1.87,1.83,2.98,2.6,2.18.65-.68-1.24-2.22-2.6-2.18"/>
      <path class="cls-2" d="M34.42,58.03c2.05-.5,3.42-2.08,2.73-2.77-.42-.42-2.49.11-2.73,2.77"/>
      <path class="cls-2" d="M109.93,38.13c-.96.17-.46.03-.84.39.06.05.06.19.09.23.89,1.1,3.33,1.42,3.9-.12-.7-.42-2.29-.65-3.15-.49"/>
      <path class="cls-2" d="M85.87,8.84c.52,1.32,1.96,1.75,3.82,1.62-.21-.96-.54-1.11-1.45-1.53-.65-.31-1.86-.59-2.37-.09"/>
      <path class="cls-2" d="M65.33,9.09c1.99.02,2.92-1.25,3.2-2.96-1.54.31-2.89,1.42-3.2,2.96"/>
      <path class="cls-2" d="M46.8,6.71c-.09,1.75,1.82,3.05,2.57,2.35.4-.37-.32-1.56-.47-1.72-.48-.52-1.15-.64-2.1-.63"/>
      <path class="cls-2" d="M73.42,9.78c.73-1.43,1.06-2.46.23-3.97-1.49.58-1.37,2.73-.65,3.6.4.48-.08,0,.42.38"/>
      <path class="cls-2" d="M78.69,12.62c.37-1.88-.53-2.95-2.13-3.21-.04,2.04,1.01,3.06,1.79,3.22h.34Z"/>
      <path class="cls-2" d="M102.51,23.94c-.57-1.81-.9-2.71-3.1-2.65.2,1.68,1.36,2.38,3.1,2.65"/>
      <path class="cls-2" d="M64.15,8.77c.81-1.63.92-3.16-.38-4.08-.1.13-.15.09-.3.43-.48,1.09-.4,2.97.68,3.65"/>
      <path class="cls-2" d="M107.37,31.93c1.87.44,2.73-.51,3.22-1.92-1.58-.51-2.8.33-3.21,1.81,0,.02-.02.08-.01.11"/>
      <path class="cls-2" d="M96.44,15.7c.86-.21,1.26-.61,1.35-1.67.08-.93-.21-1.57-.68-2.09-1.01,1.2-1.26,1.91-.67,3.76"/>
      <path class="cls-2" d="M54.25,37.32c1.36-.35,1.77-1.94,1.2-3.53-.62-.09-1.2.79-1.34,1.12-.38.87-.07,1.63.14,2.41"/>
      <path class="cls-2" d="M44.42,18.91c1.47-.76,1.74-2.78.69-4.35-.53.37-.69.7-.78,1.79-.06.78.05,1.77.09,2.57"/>
      <path class="cls-2" d="M57.89,20.91c.81-3.61-2.78-5.05-1.43-1.34.32.87.61,1,1.43,1.34"/>
      <path class="cls-2" d="M103.11,27.59c.8-.32.78-.47,1.17-1.44.28-.7.41-1.28.2-2.02-1.03.16-1.86,1.04-1.82,2.22,0,.23.02.39.09.61.34,1.09.06.21.36.63"/>
      <path class="cls-2" d="M39.49,51.03c.34-1.6-1.45-2.27-3.52-1.94.49,1.11,2.31,2,3.52,1.94"/>
      <path class="cls-2" d="M82.93,3.49c1.33-1.19.57-2.32-.22-3.49-.57.49-.94,1.02-.91,1.77.04.97.5,1.46,1.13,1.72"/>
      <path class="cls-2" d="M41.76,27.71c2.09.26,2.33-1.15,1.87-3.04-.86.38-2.07,1.45-1.87,3.04"/>
      <path class="cls-2" d="M32.62,52.52c.22.63-.28.14.6.73.23.16.47.28.75.4.79.33,1.34.26,2.23.19.06-.95-.31-1.17-1.19-1.46-.87-.29-1.63-.28-2.39.14"/>
      <path class="cls-2" d="M38.41,35.81c.34-.78.27-1.35-.09-2.22-.38-.93-.5-1.23-1.51-1.45,0,1.51.29,3.8,1.6,3.67"/>
      <path class="cls-2" d="M80.16,10.53c0-1.77-1.06-3.07-2.67-3.25.47,1.89.76,2.68,2.67,3.25"/>
      <path class="cls-2" d="M102.7,48.01c-.35,1.49,1.13,4.03,1.82,3.38,1.19-1.13-1.02-3.06-1.82-3.38"/>
      <path class="cls-2" d="M72.56,15.61c-.37-1.45-1.25-2.11-3.03-2.14-.07,1.77,1.21,2.39,3.03,2.14"/>
      <path class="cls-2" d="M47.17,50.44c-.91,0-.34.05-.59.14-.37.65.03.95.09,1.04.02.03.68.64.72.66.41.31,1.13.71,1.68.8.1-1.38-.54-2.63-1.9-2.64"/>
      <path class="cls-2" d="M51.03,51.09c1.78-.08,2.99-1.29,3.55-2.64-.68-.07-1.78.2-2.36.72-.25.22-1.04,1.64-1.18,1.92"/>
      <path class="cls-2" d="M110.63,50.9c.02,2.09.48,3.4,2.27,3.67,0-1.8-1.28-3.03-2.27-3.67"/>
      <path class="cls-2" d="M93.53,37.58c.99.24,1.13.05,1.9-.48.75-.51.85-.41,1.13-1.43-1,0-2.73-.07-3.09,1.06-.15.49,0,.68,0,.67,0-.03.04.11.06.17"/>
      <path class="cls-2" d="M41.32,24.88c1.91.1,2.14-1.34,1.81-3.16-.83.26-.28-.1-.84.48-.04.04-.49.71-.55.81-.38.62-.53,1.05-.42,1.87"/>
      <path class="cls-2" d="M113.16,37.15c-.21-1.62-1.06-2.59-2.77-2.68.14,1.72,1.04,2.51,2.77,2.68"/>
      <path class="cls-2" d="M50,12.49s.12.04.15.12c.03.08.11.09.15.12,1.08.73,2.34,1.12,3.59.62-.87-2.32-3.87-1.08-3.88-.86"/>
      <path class="cls-2" d="M106.95,46.21c.69.23,1.51.55,2.36.22.45-.17,1.28-.64,1.13-1.29-1.48-.28-3.03-.4-3.49,1.08"/>
      <path class="cls-2" d="M85.29,29.64c1.78.2,1.65-1.92,1.27-3.55-1.22.65-1.52,2.13-1.27,3.55"/>
      <path class="cls-2" d="M91.57,36.06c1.56.55,2.84-.49,3.26-1.58-1.61-.17-3.39-.2-3.26,1.58"/>
      <path class="cls-2" d="M92.61,15.46c1.04.49,2.92-.61,3.07-1.29.23-1,.03-.3-.1-.56-1.26-.49-3.12.92-2.97,1.85"/>
      <path class="cls-2" d="M73.38,27.5c.77,1.01,2.45.99,3.77,0-.15-.24.24-.15-.57-.53-.97-.46-2.29-.36-3.2.53"/>
      <path class="cls-2" d="M37.94,56.8c1.02-.13,2.51-2.34,1.2-3.51-.96.51-1.53,1.87-1.2,3.51"/>
      <path class="cls-2" d="M34.88,43.86c.28.68.37,1.17,1.1,1.66.49.34,1.3.46,2.09.46-.2-1.56-1.34-2.19-3.19-2.12"/>
      <path class="cls-2" d="M44.61,26.91c.47.23.83.43,1.63.46.92.03,1.11-.09,1.65-.56-.68-1.54-2.78-1.58-3.29.09"/>
      <path class="cls-2" d="M35.47,38.76c1.91.49,2.59-.45,3.13-1.77-.85-.04-1.6-.09-2.3.36-.58.37-.95.77-.83,1.41"/>
      <path class="cls-2" d="M97.42,33.16c.23.86.35.95,1.4,1.17.94.19,1.53.14,2.24-.17-.46-1.41-2.12-1.4-3.64-1"/>
      <path class="cls-2" d="M43.62,59.9c.8-.36.38.36.8-.82.33-.92.21-2.3-.09-3.21-.25.11-.82-.28-.98,1.89-.07.88.08,1.46.28,2.14"/>
      <path class="cls-2" d="M57.77,23.31c0-.88-.21-1.22-.66-1.9-.44-.65-.6-1.1-1.42-1.11-.24,1.83.27,3.03,2.08,3.01"/>
      <path class="cls-2" d="M104.65,23.12c-.41-1.62-.97-2.11-2.81-2.31.16,1.65,1.05,2.58,2.81,2.31"/>
      <path class="cls-2" d="M83.34,5.18c1.45-.01,2.16-1.2,2.35-2.84-1.64.16-2.42,1.03-2.35,2.84"/>
      <path class="cls-2" d="M56.48,45.27c.57-.52.72-.83.64-1.82-.12-1.53-1.73-2.56-1.51.17.09,1.12.14,1.1.88,1.65"/>
      <path class="cls-2" d="M80.07,15.75c1.02-.18,1.11-.43,1.63-1.24.37-.58.67-1.12.61-1.9-1.36.11-2.41,1.43-2.24,3.14"/>
      <path class="cls-2" d="M50.6,53.34c1.68-.1,3.03-1.19,3.22-2.67-1.4.13-3.03,1.39-3.22,2.67"/>
      <path class="cls-2" d="M89.49,19.17c.03-1.78-.27-2.73-1.38-3.43-.75,1.63-.29,3.17,1.38,3.43"/>
      <path class="cls-2" d="M90.38,37.28c-1.23,1.36-.21,2.98,1.24,3.55,0-.86-.03-1.46-.3-2.22-.31-.84-.37-1.04-.94-1.33"/>
      <path class="cls-2" d="M40.1,23.69c.65-.3.99-.62,1.16-1.44.19-.93.09-1.62-.47-2.19-1.19.76-1.08,2.04-.69,3.63"/>
      <path class="cls-2" d="M105.84,48.5c-.44.49-.71,1.25-.41,2.15.37,1.14,1.16,1.24,1.42,1.32.54-1.55-.19-2.52-1.01-3.47"/>
      <path class="cls-2" d="M52.27,39.74c-.31,1.47-.65,3.23.99,3.44.67-1.5.37-2.67-.99-3.44"/>
      <path class="cls-2" d="M64.88,14.93c-.03.06-.08.07-.09.17-.04.41-.7,1.2.81,2.6.76.7,0,.3.86.47.47-1.73-.89-3.25-1.58-3.23"/>
      <path class="cls-2" d="M95.74,38.94c1.48-.04,3.28-1.48,2.57-2.1-.88-.79-2.62.48-2.57,2.1"/>
      <path class="cls-2" d="M96.36,28.19c1.71.88,2.95.25,3.12-1.66-1.33.03-2.73.83-3.12,1.66"/>
      <path class="cls-2" d="M103.78,19.36c1.66.24,2.98-.29,3.13-1.8-1.7-.25-2.69.48-3.13,1.8"/>
      <path class="cls-2" d="M40.26,28.64c-.14-1.33-1.4-2.04-2.96-2.08.31,1.38,1.28,2.58,2.96,2.08"/>
      <path class="cls-2" d="M60.05,8.72c1.21.1,1.62-1.44,1.48-2.37-.15-.96-.31-.71-.63-.92-.59.85-1.47,2.33-.85,3.29"/>
      <path class="cls-2" d="M56.62,7.14c.06.68.29,1.22.71,1.54.31.24,1.48.75,1.86.37.81-.81-.88-2.13-2.57-1.91"/>
      <path class="cls-2" d="M79.31,36.44c.22-1.21-1.41-2.06-2.72-1.79-.12,1.67,1.06,1.99,2.72,1.79"/>
      <path class="cls-2" d="M66.97,20.85c1.71.89,2.52-.36,3.27-1.02-.56-.47-1.08-.57-1.97-.31-.87.26-1.21.55-1.3,1.33"/>
      <path class="cls-2" d="M108.64,48.06c.95.13.97.44,1.97.39.58-.03,1.32-.33,1.84-.46-.87-1.44-2.43-1.24-3.39-.4l-.42.47Z"/>
      <path class="cls-2" d="M40.79,55.58c1.38-1.38.14-3.27.14-3.27-.02-.09-.09-.09-.14-.13-.58.3-.43-.05-.74.74-.49,1.24,0,2.05.74,2.67"/>
      <path class="cls-2" d="M65.25,7.36c.96,0,2.03-1.86,1.37-3.4-1.01.47-1.96,1.99-1.37,3.4"/>
      <path class="cls-2" d="M55.51,30.46c.74,1.27,2.53.89,3.22.46-.15-.67-.37-1.17-1.32-1.2-.43-.01-.61.06-1.02.2-.19.07-.34.13-.48.22-.29.17-.25.18-.4.33"/>
      <path class="cls-2" d="M47.08,24.77c-.72-1.06-1.48-1.29-3.2-1.14.15.89.3,1.26,1.1,1.5.85.26,1.53.12,2.11-.36"/>
      <path class="cls-2" d="M112.55,34.22c.42,1.44,2.06,1.9,3.25,1.42-.01-.81-.19-.89-1.13-1.26-.64-.25-1.54-.38-2.12-.16"/>
      <path class="cls-2" d="M80.08,35.07c1.12-.71,1.79-2.37.74-3.48-1.54.64-1.05,2.17-.74,3.48"/>
      <path class="cls-2" d="M105.34,19.71c.69,1.33,2.77,1.31,3.7.59-.28-.76.37-.2-.54-.69-.85-.46-2.47-.02-3.16.1"/>
      <path class="cls-2" d="M76.62,21.89c1.67-.24,2.98-.73,2.97-2.25-1.67-.17-2.59.93-2.97,2.25"/>
      <path class="cls-2" d="M56.13,27.15c-.07,1.36,1.11,1.85,2.81,1.81-.33-1.41-1.24-2.34-2.81-1.81"/>
      <path class="cls-2" d="M110.58,31.43c.67.08,1.35.17,2.04-.1.1-.04.72-.43.73-.44.45-.43.29-.55.24-.71-.63-.25-1.26-.31-2.02-.14-.9.19-.9.38-.99,1.39"/>
      <path class="cls-2" d="M107.51,37.86c1.62-.17,2.61-.62,3-1.98-2.16-.02-2.59,0-3,1.98"/>
      <path class="cls-2" d="M101.67,19.66c1.55-.23,2.29-.85,2.07-2.58-1.51.01-2.1,1.04-2.07,2.58"/>
      <path class="cls-2" d="M70.87,10.37c.33.16.43.23.76.39l.89.2c.21-1.28-.79-2.99-1.67-3.22l.02,2.63Z"/>
      <path class="cls-2" d="M55.33,16.63c.6.04,2.42.6,3.02-.89.1-.25.04-.33.03-.39-1.79-.61-2.48-.01-3.05,1.28"/>
      <path class="cls-2" d="M101.11,36.33c.02-.35-.6-.95-.87-1.18-.68-.59-1.16-.62-2.2-.74.26,1.02,1.11,1.94,1.97,2.12.73.15.88-.06,1.1-.21"/>
      <path class="cls-2" d="M51.07,22.25c1.51.04,2.47-1.12,2.65-2.5-1.6.14-2.48.97-2.65,2.5"/>
      <path class="cls-2" d="M107.27,26.36c1.71,1.19,4.73-1.41,2.22-1.44-1.07-.01-1.66.78-2.22,1.44"/>
      <path class="cls-2" d="M48.11,48.25c-.11.85,0,1.47.41,1.99,1.95,2.54,2.13-1.98-.41-1.99"/>
      <path class="cls-2" d="M51,56.27c1.46-.48,2.03-1.13,1.89-2.9-1.6.1-1.91,1.25-1.89,2.9"/>
      <path class="cls-2" d="M36.15,32.22c.21-1,.28-1.1-.28-1.85-.37-.49-.63-.96-1.18-1.24-.55,1.42,0,3.2,1.46,3.08"/>
      <path class="cls-2" d="M45.23,54.95c-.7,1.3.58,2.78,1.68,3.07.11-1.4-.38-2.97-1.68-3.07"/>
      <path class="cls-2" d="M50.59,24.94c1.51-.06,2.13-.9,2.05-2.5-1.43.19-2.33.85-2.05,2.5"/>
      <path class="cls-2" d="M57.98,36.74c-.14.93-.52,3.6,1.09,3.12.36-.81.46-2.68-1.09-3.12"/>
      <path class="cls-2" d="M97.37,25.67l.81.1c1.2-.23,1.61-.9,1.61-2.22-1.36.05-2.55.96-2.42,2.11"/>
      <path class="cls-2" d="M66.85,21.69c-.21.71-.12.57.21,1.36.72.23,1.63.38,2.3.07-.08-1.29-1.18-1.81-2.52-1.43"/>
      <path class="cls-2" d="M96.94,16.85c1.65-.09,2.69-.77,2.76-2.37-1.46.13-2.48.97-2.76,2.37"/>
      <path class="cls-2" d="M80.45,30.04c.4.41.87.72,1.74.75,1.16.05,1.64-.23,1.77-1.01-1.13-.72-2.64-.24-3.51.27"/>
      <path class="cls-2" d="M78.35,32.63c.76-.54,1.23-1.65.86-2.6-.07-.17-.15-.31-.25-.45-.25-.32-.12-.14-.42-.36-.76.67-.97,2.47-.19,3.4"/>
      <path class="cls-2" d="M49.63,18.99l-.28.99c-.05.97.26,2.12,1,2.67.71-1.03.39-3.55-.72-3.67"/>
      <path class="cls-2" d="M37.98,29.43l-.07.34c.03.26-.03.2.1.49.36.75,2.23,1.44,2.76.92.46-.44-1.42-1.85-2.8-1.75"/>
      <path class="cls-2" d="M81.66,32.05c.72.91,2.62,1.48,2.84-1.2-.62,0-1.11.09-1.6.33l-1.24.87Z"/>
      <path class="cls-2" d="M46.14,20.53c.92-.3.2.25.83-.5.51-.6.8-1.94.18-2.87-1.23.43-1.21,2.3-1.02,3.36"/>
      <path class="cls-2" d="M64.62,29.58c1.98-.88,1.23-2.65.28-3.28-.86,1.06-.55,1.98-.28,3.28"/>
      <path class="cls-2" d="M113.54,51.16c-.36-1.4-1.36-1.79-3.21-1.79.3.95,1.82,2.22,3.21,1.79"/>
      <path class="cls-2" d="M91.39,17.63c1.3.25,2.6.02,3.25-.77-.39-.78-.46-.71-1.5-.48-2.25.5-1.61.55-1.75,1.26"/>
      <path class="cls-2" d="M97.94,39.27c1.44.58,2.98-.23,3.05-1.38-1.92-.17-2.48.03-3.05,1.38"/>
      <path class="cls-2" d="M40.42,33.91c-.07-1.64-.81-2.22-2.39-2.43.12,1.58.83,2.3,2.39,2.43"/>
      <path class="cls-2" d="M53.03,27.65l.09.69c.48,1.04,1.35,1.4,2.59,1.32-.05-1.21-1.43-2.23-2.68-2.01"/>
      <path class="cls-2" d="M94.81,41.7c.46.54.88.69,1.72.63-.1-1.24-1.08-2.69-2.07-2.36-.27.56-.16,1.13.36,1.73"/>
      <path class="cls-2" d="M88.02,33.29c1.25.27,2.51-.07,3.05-1.24-.94-.27-1.95-.42-2.82.39-.9.84-.24.78-.23.85"/>
      <path class="cls-2" d="M51.04,8.7c.14-1.51-.16-2.57-1.8-2.63-.05,1.71.36,2.4,1.8,2.63"/>
      <path class="cls-2" d="M54.88,24.76c.54-1.58-.05-2.44-1.65-2.58.01.86,0,1.11.39,1.82.41.77.42.74,1.25.75"/>
      <path class="cls-2" d="M101.64,42.87c-.61.31-.91.54-1.22,1.04-1.55,2.47,2.61,2.19,1.22-1.04"/>
      <path class="cls-2" d="M53,11.6c-.16-1.54-1.08-2.36-2.65-2.52.19,1.41,1.19,2.32,2.65,2.52"/>
      <path class="cls-2" d="M66.99,16.34c1.79-.04,2.04-2.16,1.32-3.17-.97.64-1.28,2.01-1.32,3.17"/>
      <path class="cls-2" d="M43.93,18.56c.18-.88-.08-1.57-.42-2.21-.41-.76-.57-.84-1.48-1.03-.13,1.37.95,2.79,1.9,3.23"/>
      <path class="cls-2" d="M109.1,35.55c.05-1.42-1.01-1.91-2.42-2.26.21,1.44.83,2.68,2.42,2.26"/>
      <path class="cls-2" d="M79.6,21.67c1.2.34,2.68-.8,2.75-1.86-1.31-.31-2.76.6-2.75,1.86"/>
      <path class="cls-2" d="M36.07,47.03c.38.62.63.84,1.71.65,1.17-.21,1.34-.6,1.51-1.18-1.53-.49-1.95-.25-3.22.53"/>
      <path class="cls-2" d="M64.91,35.76c1.32.05,1.85-1.22,1.84-2.64-.79.15-1.1.42-1.5.88-.59.69-.74,1.1-.34,1.75"/>
      <path class="cls-2" d="M54.66,40.86c-.29.21-.12-.01-.39.34-.43.55-.88,2.27.39,3.02.62-1,.91-2.38,0-3.36"/>
      <path class="cls-2" d="M60.45,24.04c1.55-.11,1.32-2.13.65-3.32-.56.32-.69.38-.78,1.32-.07.67,0,1.35.13,2.01"/>
      <path class="cls-2" d="M54.14,8.58c-.33,1.34.21,2.62.98,3.4.83-.89.22-3.61-.98-3.4"/>
      <path class="cls-2" d="M81.53,21.81c.84.24,2.17.06,2.83-.31.94-.54.42-.02.64-.92-1.26-.15-2.92-.02-3.46,1.23"/>
      <path class="cls-2" d="M89.96,16.97c1-.89.67-2.04.27-3.25-.75.32-.32-.17-.77.6-.18.3-.6,2.02.49,2.66"/>
      <path class="cls-2" d="M74.13,13.03c.85.32.95.17,1.83,0,.3-.47,1.04-1.66-.29-1.59-1.07.06-1.77.69-1.54,1.6"/>
      <path class="cls-2" d="M52.73,14.95c.3.31.55.55,1.8.34.67-.11,1.14-.36,1.59-.76-.85-1-2.47-.66-3.4.42"/>
      <path class="cls-2" d="M70.57,20.11c.47,1.08,1.28,1.35,2.66.92.2-1.85-1.82-1.52-2.66-.92"/>
      <path class="cls-2" d="M105.64,38.18c.99-.46,1.54-1.39,1.7-2.9-1.64.33-2.27,1.11-1.7,2.9"/>
      <path class="cls-2" d="M51.26,20.16c.9-.82,1.2-2.45.22-3.49-.76.68-1.08,2.57-.22,3.49"/>
      <path class="cls-2" d="M56.71,12.68c.62-.69.62-3.06-.68-3.37-.32.69-.43,2.83.68,3.37"/>
      <path class="cls-2" d="M111.04,29.85c1.58-.47,1.82-1.41,1.28-2.89-.74.2-.73.03-1.06.95-.21.6-.22,1.27-.21,1.94"/>
      <path class="cls-2" d="M52.5,19.06c1.46-.19,2.3-1.14,1.68-2.64-1.06.23-1.6,1.24-1.68,2.64"/>
      <path class="cls-2" d="M79.83,25.71c-.38-1.28-1.05-2.5-2.44-2.53,0,1.69.94,2.11,2.44,2.53"/>
      <path class="cls-2" d="M89.86,34.65c1.54.14,2.87-.75,3.2-1.59-1.64-.29-2.79.29-3.2,1.59"/>
      <path class="cls-2" d="M96.5,40c.31.8.19,1.15,1.2,1.34.82.16,1.26,0,1.77-.42-.7-.98-1.45-1.05-2.97-.92"/>
      <path class="cls-2" d="M38.93,48.86c1.31.29,2.31.22,2.8-1.11-1.74-.74-2.33-.12-2.8,1.11"/>
      <path class="cls-2" d="M50.71,11.58c-.41-1.04-1.13-1.83-2.67-1.58.13.83.27,1.08.87,1.41.59.33,1.13.47,1.8.17"/>
      <path class="cls-2" d="M59.83,11.23c.56.04.84-.21,1.18-.58.54-.59.56-.92.58-1.89-1.09.18-1.76.98-1.9,1.52-.26,1.02.04.76.14.95"/>
      <path class="cls-2" d="M106.63,21.91c.06-1.01-1.37-1.59-2.77-1.53.23,1.32,1.59,1.77,2.2,1.72.75-.06.4-.1.57-.19"/>
      <path class="cls-2" d="M74.19,17.97c1.6.14,2.06-.42,2.29-1.85-1.47,0-2.36.35-2.29,1.85"/>
      <path class="cls-2" d="M46.64,42.83c.05,1.62.14,2.28,1.68,2.4.28-1.56-.21-2.16-1.68-2.4"/>
      <path class="cls-2" d="M49.6,31.72c.42,1.2,1.9,1.16,2.9.9-.59-2.06-2.64-1.1-2.9-.9"/>
      <path class="cls-2" d="M79.43,18.15c.55,1.59,2.83.93,3.35.64-.27-.38-.77-.62-1.34-.79-.58-.16-1.67-.15-2,.15"/>
      <path class="cls-2" d="M58.85,13.71c.24-1.28.21-2.84-.93-3.16-.31.51-.34,1.02-.13,1.78.3,1.11.26,1.09,1.07,1.38"/>
      <path class="cls-2" d="M53.45,10.39c.31-1.52-.71-2.78-1.52-3.15-.49.92.49,2.95,1.52,3.15"/>
      <path class="cls-2" d="M52.84,38.62c1.34-.26,1.35-1.63.45-2.53-1.21.33-1.25,1.49-.45,2.53"/>
      <path class="cls-2" d="M59.21,21.81c1.05-.78,1.04-2.67-.25-3.24-.34,1.21-.54,2.1.25,3.24"/>
      <path class="cls-2" d="M89.69,44.07c1.47-.16,1.89-.82,1.94-2.38-1.66.38-1.84.73-1.94,2.38"/>
      <path class="cls-2" d="M64.81,32.6c1.32.3,2.3-.49,2.63-1.71-.75.07-1.01.08-1.7.41-.76.36-.81.4-.93,1.31"/>
      <path class="cls-2" d="M103.17,37.88c1.04-.35,1.91-.95,1.43-2.54-1,.07-1.73,1.1-1.43,2.54"/>
      <path class="cls-2" d="M50.23,26.93c.83.46,2.49.24,2.06-1.15-.5-.29-.85-.46-1.47-.06-.51.33-.65.77-.6,1.21"/>
      <path class="cls-2" d="M94.02,49.72c-1.37.5-.84,2.24.5,2.58.33-1.19.3-2.06-.5-2.58"/>
      <path class="cls-2" d="M87.2,27.77c1.52-.11,1.71-.95,1.66-2.59-.53.17-.87.38-1.25.91-.35.49-.38.92-.41,1.68"/>
      <path class="cls-2" d="M100.8,50.53c.78-.04,1.18-.17,1.47-.69.32-.56.44-1.29,0-1.66-.83-.71-1.28,1.65-1.48,2.35"/>
      <path class="cls-2" d="M69.71,31.14c-.18-1.57-.53-2.03-2.16-2.05.25,1.3.82,2.01,2.16,2.05"/>
      <path class="cls-2" d="M93.27,47.28c.5,1.25,1.24,2,2.68,1.64-.47-1.38-1.12-1.57-2.68-1.64"/>
      <path class="cls-2" d="M57.92,17.49c.6.84,1.86.98,2.69.23-.24-.62.18-.15-.36-.58-.19-.15-.58-.28-.83-.3-.77-.06-1.15.12-1.5.65"/>
      <path class="cls-2" d="M74.25,14.99c.98.75,2.85.75,2.4-.33-.19-.45-.75-.55-1.26-.52-.88.05-.97.25-1.13.85"/>
      <path class="cls-2" d="M98.83,48.39c1.26.61,2.11.46,2.6-.65-.66-.57-.86-.47-1.78-.41l-.82,1.06Z"/>
      <path class="cls-2" d="M101.75,38.68c.97-.52.99-1.53.77-2.64-1.01.06-1.77,1.6-.77,2.64"/>
      <path class="cls-2" d="M103.4,45.76c.38-1.21.86-2.08-.52-2.73-.43,1.16-.84,2.12.52,2.73"/>
      <path class="cls-2" d="M57.45,40.91c.67-.85.21-2.02-.18-2.72-.78.58-1.29,2.4.18,2.72"/>
      <path class="cls-2" d="M109.94,51.78c-.55.8-.52,2.46.68,2.79.49-.91.08-2.24-.68-2.79"/>
      <path class="cls-2" d="M93.72,43.7c.66.25.78.2,1.5-.2.81-.45.79-.38,1.04-1.08-1.37-.06-2.67.16-2.54,1.28"/>
      <path class="cls-2" d="M67.42,32.28c1.02.84,2.2.43,2.34-.74-1.23-.32-1.94-.26-2.34.74"/>
      <path class="cls-2" d="M62.11,22.5c.47.79,1.65,1.74,2.35.46-.25-.43-.25-.59-1.06-.76-.44-.09-1.18-.07-1.29.3"/>
      <path class="cls-2" d="M99.58,31.82l-1.96-.33c-2.21.23-.6,1.71,1.21.83l.75-.5Z"/>
      <path class="cls-2" d="M96.36,21.25c1.58-.15,2.42-.17,2.41-1.73-1.32.35-1.91.66-2.41,1.73"/>
      <path class="cls-2" d="M91.36,44.1c1.14.04,2.21-.52,2.12-1.7-1.37.04-1.71.64-2.12,1.7"/>
      <path class="cls-2" d="M106.46,46.43c-.49-.13-1.04-.15-1.53-.18.23,1.2,1.43,1.22,2.7,1.03-.21-.6-.46-.67-1.18-.85"/>
      <path class="cls-1" d="M20.98,86.9s.01.08.01.13c0,.04-.01.13-.04.28-.03.15-.04.28-.04.4,0,.12.02.41.06.86.04.45.06.86.06,1.23,0,.81-.11,1.6-.33,2.36-.22.76-.49,1.34-.81,1.74-.32.4-.85.89-1.58,1.47-.14.08-.21.14-.21.2h0c-.13.1-.22.14-.28.14-.05,0-.08-.02-.11-.05-.03-.04-.06-.17-.09-.42-.15-.06-.22-.18-.22-.37,0-.07.05-.13.15-.18.1-.05.34-.11.72-.19.32-.16.48-.24.48-.24.16-.07.34-.24.55-.5.21-.26.37-.55.5-.84.12-.3.22-.63.3-.99.07-.36.12-.76.15-1.19.03-.43.05-.92.05-1.46s-.05-1.09-.15-1.7c-.08-.24-.12-.39-.12-.43,0-.04,0-.06.01-.06,0-.11.06-.17.16-.21l.39-.11c.15-.05.24-.07.28-.07.01.01.02.04.02.09,0,.05.02.08.06.11"/>
      <path class="cls-1" d="M32.74,91.72c.11-.03.23-.05.35-.05.27-.05.41-.13.41-.23,0,0-.23-.59-.69-1.76-.46-1.17-.76-1.75-.9-1.75-.1,0-.29.28-.58.83-.29.55-.61,1.12-.97,1.7-.36.58-.54.94-.54,1.07,0,.09.06.15.18.19.12.03.19.05.21.05h.11c.07-.01.16,0,.27.02.11.02.19.03.24.03.1,0,.25-.02.47-.05.22-.03.35-.05.41-.05s.12,0,.2.02c.08.02.13.02.15.02.06,0,.1-.03.12-.09.1.03.19.05.27.05h.18s.08,0,.1,0M32.45,86.84c.32,1.09,1.32,3.45,3,7.06.23.34.34.62.34.86,0,.05-.02.1-.06.15-.04.04-.18.1-.42.17-.24.07-.4.12-.47.16-.06-.07-.09-.14-.09-.21,0-.06,0-.12.02-.2l.03-.09c0-.13-.07-.4-.2-.81-.13-.41-.35-.93-.67-1.56-.03-.02-.06-.06-.1-.13-.03-.07-.12-.11-.25-.11-.08,0-.15.04-.22.11-.01-.03-.1-.06-.25-.09l-.18-.05h-.18c-.4,0-.68.02-.84.07-.16.05-.24.07-.25.07-.06,0-.1-.03-.13-.09-.24.06-.43.09-.54.07-.12-.02-.23-.02-.35-.02-.26,0-.51.03-.73.09-.22.06-.37.09-.43.1s-.13.05-.19.15l-.08-.06c-.4.84-.7,1.49-.9,1.97-.02.3-.09.55-.19.76-.1.21-.19.31-.28.31h-.01c-.14-.06-.41-.12-.83-.2-.06-.01-.09-.05-.09-.11,0-.13.07-.25.21-.37.14-.11.22-.2.24-.26.13-.25.25-.42.36-.51.14-.17.32-.45.54-.84.22-.39.39-.65.53-.79,0-.17.19-.55.57-1.12.37-.58.7-1.11.97-1.62.27-.5.43-.78.46-.81.56-.79.83-1.33.83-1.61v-.02c.09,0,.14-.02.14-.06v-.06c0-.15.1-.3.29-.47l.08.04c.1-.13.18-.2.24-.2.07,0,.11.05.11.16,0,.06-.01.12-.03.17"/>
      <path class="cls-1" d="M48.49,94.22s.06.11.06.19c0,.14-.07.28-.2.41-.13.14-.24.2-.34.2-.07,0-.18-.08-.31-.23l-.34-.33c-.25-.25-.68-.55-1.3-.91-.61-.36-1.43-.9-2.45-1.6l-.08-.32v-.05c0-.06.03-.1.09-.11.07-.02.16-.05.28-.09.76-.25,1.29-.54,1.59-.87.3-.34.46-.79.46-1.35,0-.68-.2-1.16-.59-1.46-.39-.29-.85-.44-1.36-.44h-.26c-.12,0-.24.04-.34.11-.1.07-.15.25-.15.54,0,.14,0,.25.02.34,0,.09.01.22.01.38l-.07,1.48c0,.23,0,.42,0,.55l.02.44-.03.27c-.02.21-.03.43-.03.67,0,.22.03,1.21.1,2.97-.02.03-.05.07-.09.13-.04.06-.07.09-.09.09-.02,0-.05-.01-.08-.04-.25.08-.38.11-.4.11-.06,0-.12-.04-.18-.13s-.09-.21-.09-.37v-.06c.18-.29.27-.88.27-1.77l-.03-2.18.03-1.57v-.94c0-.14-.02-.32-.05-.55-.03-.23-.04-.39-.04-.49,0-.09.01-.15.04-.2.03-.04.08-.07.15-.08.07-.01.2-.03.39-.05.19-.02.39-.03.61-.03.4,0,.76.04,1.09.11.33.07.65.19.95.36.3.17.51.35.63.55.12.19.21.38.27.58.06.19.09.38.09.56,0,1.04-.68,1.83-2.05,2.37-.1.07-.14.14-.14.19,0,.1.08.21.24.33.16.13.46.33.9.61.12.06.25.14.41.27.16.12.27.21.32.25.17.07.31.15.45.25.13.1.24.16.32.18.08.02.13.03.15.05,0,.04.03.08.08.12.15.07.33.19.53.34.21.15.36.23.45.23.03,0,.06,0,.07-.02"/>
      <path class="cls-1" d="M55.74,93.91c-.02.09-.02.16-.02.21,0,.29.08.44.23.44.25,0,.54-.06.87-.17.32-.11.65-.27.98-.49.17-.12.33-.2.46-.26.13-.06.37-.25.72-.6.23-.22.43-.46.59-.7.17-.25.3-.51.41-.79.16-.41.24-.7.24-.88,0-.6-.07-1.12-.2-1.54-.14-.42-.37-.79-.7-1.08-.33-.3-.71-.5-1.13-.6-.42-.1-1.06-.15-1.92-.15l-.05.12h-.05c-.06,0-.11-.01-.16-.03-.26.26-.39,1.39-.39,3.4l.05,2.95v.05c-.01.06.02.09.08.12M58.92,87.05c.64.27,1.13.69,1.48,1.25.35.56.53,1.18.53,1.88,0,.26-.03.53-.1.79-.07.26-.17.53-.31.79-.14.26-.3.52-.5.77-.2.25-.42.48-.67.71-.26.23-.54.44-.84.64-.31.2-.65.38-.99.54l-.42.27-.52.17c-.27.09-.41.14-.42.14-.03,0-.07,0-.11-.02-.03.04-.07.08-.12.11-.06.04-.09.06-.1.06h-.17c-.04.07-.1.13-.2.18-.1.04-.17.07-.22.07-.04,0-.1,0-.18-.02-.08-.01-.14-.02-.19-.02h-.04c-.09,0-.13-.09-.13-.28,0-.02.01-.09.04-.21.14-.7.21-1.46.21-2.25l-.02-1.82v-1.79c.01-.46,0-.79-.02-.98-.02-.19-.04-.46-.04-.81,0-.13,0-.21.02-.23.06-.02.1-.06.1-.12h.21l.04-.1c.22.12.45.18.7.18.08,0,.15,0,.21-.02l.17-.03s.08,0,.17.03c.09.02.15.02.18.02l.14-.02c.13-.02.26-.03.4-.03.41,0,.76.02,1.05.06.28.04.42.08.42.1.05.02.08.02.1.02.03,0,.08,0,.17-.02"/>
      <path class="cls-1" d="M68.18,95.1c-.38-.04-.58-.12-.58-.24,0-.04.01-.08.04-.13.03-.05.05-.1.07-.17.02-.07.05-.29.08-.66.03-.38.06-.95.09-1.72.03-.77.04-1.59.04-2.46l-.08-1.95h0s-.02-.09-.05-.15c-.03-.06-.05-.1-.05-.13,0-.01.03-.09.1-.23.07-.15.19-.24.36-.29.17-.05.26-.08.28-.08.04,0,.07.02.08.07.01.04.03.07.06.09.08.07.12.18.12.35,0,.01,0,.06-.02.14-.1.66-.15,1.4-.15,2.2v.45s-.04,2.46-.04,2.46c0,.74.05,1.27.16,1.61.1.34.15.57.15.71,0,.06-.06.11-.17.16-.11.05-.21.07-.29.07h-.03c-.08,0-.13-.03-.16-.08"/>
      <path class="cls-1" d="M83.92,86.53c.07.09.1.16.1.21v.23c0,.39.03.98.1,1.76.07.78.17,1.57.28,2.36.11.79.22,1.51.33,2.17.11.65.17,1.03.18,1.14.01.11.05.2.11.28.06.13.1.22.1.26,0,.08-.07.11-.21.11h-.05l-.13.17c-.09.02-.2.05-.33.06-.13.01-.21.03-.24.06-.01,0-.03-.02-.04-.07-.01-.05-.02-.11-.03-.21-.01-.09-.02-.21-.03-.35l-.05-1.12c-.01-.45-.03-.74-.04-.88-.07-.46-.14-.93-.2-1.43l-.13-1.16c-.08-.68-.14-1.16-.19-1.43-.05-.27-.12-.43-.22-.48-1.5,2.93-2.25,4.47-2.25,4.61,0,.02,0,.07.02.15-.04.05-.07.11-.1.18.04.04.05.09.05.14-.24.23-.38.45-.43.64-.06.06-.11.09-.16.09-.03,0-.11-.06-.25-.18-.14-.12-.23-.28-.27-.49-.03-.02-.06-.04-.08-.07-.02-.03-.05-.06-.07-.1-.02-.03-.03-.08-.05-.13l-.04-.17c-.01-.06-.02-.13-.03-.2l-.29-.64-.57-1.31c-.42-1.01-.75-1.74-.98-2.18-.03.03-.06.06-.09.09-.03.03-.06.15-.09.34-.09.51-.21,1.1-.35,1.78l-.29,1.43c-.1.52-.17,1.03-.21,1.51,0,.05-.02.13-.06.24-.03.11-.05.19-.05.26,0,.01,0,.06.02.13.01.07.02.15.02.23,0,.3-.05.49-.15.57-.08,0-.15.04-.24.09-.08.06-.14.09-.16.09h-.02c-.06,0-.14-.04-.22-.11-.08-.08-.14-.13-.18-.15.29-.33.62-1.65.99-3.95.05-.33.16-.83.32-1.5.17-.67.25-1.16.25-1.47v-.52c-.01-.28.03-.5.11-.66.08-.16.2-.24.34-.24.2,0,.33.19.39.57.1.05.16.12.16.2,0,.09.03.23.06.43.04.2.17.55.41,1.04l.35.69v.22c.07.21.25.63.53,1.24.28.61.48,1,.59,1.17.11.16.21.24.29.24.24,0,.53-.43.86-1.29.06-.16.22-.49.47-.98.25-.49.43-.91.55-1.26.12-.34.26-.64.41-.88.07-.1.15-.32.26-.65.11-.34.22-.57.35-.72.12-.14.26-.21.4-.21.03,0,.07,0,.13.02"/>
      <path class="cls-1" d="M100.53,93.91c-.02.09-.02.16-.02.21,0,.29.08.44.23.44.25,0,.54-.06.87-.17.32-.11.65-.27.98-.49.18-.12.33-.2.46-.26.13-.06.37-.25.72-.6.23-.22.43-.46.59-.7.17-.25.3-.51.41-.79.16-.41.24-.7.24-.88,0-.6-.07-1.12-.2-1.54-.14-.42-.37-.79-.7-1.08-.33-.3-.71-.5-1.13-.6-.42-.1-1.06-.15-1.92-.15l-.05.12h-.05c-.06,0-.11-.01-.16-.03-.26.26-.39,1.39-.39,3.4l.05,2.95v.05c-.01.06.02.09.08.12M103.71,87.05c.64.27,1.13.69,1.48,1.25.35.56.53,1.18.53,1.88,0,.26-.03.53-.1.79-.07.26-.18.53-.31.79-.14.26-.3.52-.5.77-.2.25-.42.48-.67.71-.26.23-.54.44-.84.64-.31.2-.65.38-.99.54l-.42.27-.52.17c-.27.09-.41.14-.42.14-.03,0-.07,0-.11-.02-.02.04-.06.08-.12.11-.06.04-.09.06-.1.06h-.17c-.04.07-.1.13-.2.18-.1.04-.17.07-.22.07-.04,0-.1,0-.18-.02-.08-.01-.14-.02-.19-.02h-.04c-.09,0-.13-.09-.13-.28,0-.02.01-.09.04-.21.14-.7.21-1.46.21-2.25l-.02-1.82v-1.79c.01-.46,0-.79-.03-.98-.02-.19-.04-.46-.04-.81,0-.13,0-.21.02-.23.06-.02.1-.06.1-.12h.21l.04-.1c.22.12.45.18.7.18.08,0,.15,0,.21-.02l.17-.03s.08,0,.17.03c.09.02.15.02.18.02l.14-.02c.13-.02.26-.03.4-.03.42,0,.76.02,1.05.06.28.04.42.08.42.1.05.02.08.02.1.02.03,0,.08,0,.17-.02"/>
      <path class="cls-1" d="M116.87,91.72c.11-.03.23-.05.35-.05.27-.05.41-.13.41-.23,0,0-.23-.59-.69-1.76-.46-1.17-.76-1.75-.9-1.75-.1,0-.29.28-.58.83-.29.55-.61,1.12-.97,1.7-.36.58-.54.94-.54,1.07,0,.09.06.15.18.19.12.03.19.05.21.05h.11c.07-.01.16,0,.27.02.11.02.19.03.24.03.1,0,.25-.02.47-.05.22-.03.35-.05.41-.05s.12,0,.2.02c.08.02.13.02.15.02.06,0,.1-.03.12-.09.1.03.19.05.27.05h.18s.08,0,.11,0M116.59,86.84c.32,1.09,1.32,3.45,3,7.06.23.34.34.62.34.86,0,.05-.02.1-.06.15-.04.04-.18.1-.42.17-.24.07-.4.12-.47.16-.06-.07-.09-.14-.09-.21,0-.06,0-.12.02-.2l.03-.09c0-.13-.07-.4-.2-.81-.13-.41-.36-.93-.67-1.56-.03-.02-.06-.06-.1-.13-.03-.07-.12-.11-.25-.11-.08,0-.15.04-.22.11-.01-.03-.1-.06-.25-.09l-.18-.05h-.18c-.4,0-.68.02-.84.07-.16.05-.24.07-.25.07-.06,0-.1-.03-.13-.09-.25.06-.43.09-.54.07-.12-.02-.23-.02-.35-.02-.26,0-.51.03-.73.09-.22.06-.37.09-.43.1-.07,0-.13.05-.19.15l-.08-.06c-.4.84-.7,1.49-.9,1.97-.02.3-.09.55-.19.76-.1.21-.19.31-.28.31h-.01c-.14-.06-.41-.12-.83-.2-.06-.01-.1-.05-.1-.11,0-.13.07-.25.21-.37.14-.11.22-.2.24-.26.13-.25.25-.42.36-.51.14-.17.32-.45.54-.84.21-.39.39-.65.53-.79,0-.17.19-.55.57-1.12.37-.58.7-1.11.97-1.62.27-.5.43-.78.46-.81.56-.79.83-1.33.83-1.61v-.02c.09,0,.14-.02.14-.06v-.06c0-.15.1-.3.29-.47l.08.04c.1-.13.18-.2.24-.2.07,0,.11.05.11.16,0,.06-.01.12-.03.17"/>
      <path class="cls-1" d="M129.33,87.81s-.12-.1-.24-.21c-.12-.11-.26-.17-.42-.17-.63,0-1.13.14-1.5.43-.36.28-.55.66-.55,1.12,0,.51.54,1.04,1.62,1.61.07,0,.15,0,.25.02.09.02.25.13.47.34.22.21.39.4.5.57.12.17.2.34.26.51.06.17.09.35.09.52,0,.75-.18,1.34-.53,1.75-.35.41-.98.78-1.89,1.11-.05-.02-.09-.02-.13-.02-.06,0-.17.04-.3.1-.14.07-.42.1-.84.1-.15,0-.26-.06-.32-.19-.06-.12-.09-.31-.09-.56,0-.07.03-.14.08-.21h.05c.1,0,.21.06.32.19.24.06.39.08.44.08.04,0,.23-.02.56-.06.33-.04.64-.13.94-.28.3-.15.5-.29.6-.42.11-.14.21-.3.32-.48.1-.19.15-.4.15-.64,0-.36-.11-.71-.33-1.04-.22-.33-.46-.52-.72-.57v-.02c0-.07-.09-.15-.27-.26-.69-.32-1.18-.64-1.46-.95-.28-.31-.42-.68-.42-1.1,0-.17.02-.34.07-.5.04-.16.11-.32.2-.47.09-.15.2-.29.33-.41.13-.13.3-.25.52-.38.22-.13.37-.19.46-.19h.19s.06-.06.13-.14c.1,0,.22-.04.35-.09.13-.06.21-.09.25-.1.04.02.07.06.08.1.11-.03.22-.04.34-.04h.13c.18,0,.32.02.42.07.1.05.15.15.15.31,0,.13-.03.25-.08.36-.06.11-.12.18-.18.19"/>
      <path class="cls-1" d="M17.44,116.31c1.22-2.21,1.83-4.24,1.83-6.08,0-1.26-.15-2.39-.44-3.38-.29-.99-.72-1.84-1.27-2.54-.55-.7-1.21-1.26-1.95-1.68-.75-.42-1.7-.71-2.85-.85-1.15-.14-1.84-.21-2.07-.21-.03,0-.12.05-.27.16-.15.1-.29.24-.41.4-.13.06-.29.09-.5.09l-.5-.03c-.38,0-.65.16-.83.47-.02.02-.05.03-.09.03-.05,0-.09-.05-.12-.16l-.23.12v.21s-.07-.04-.1-.11c-.04-.07-.09-.1-.14-.1h-.06c-.96.33-1.51.61-1.68.83-.24.09-.43.14-.56.17-.12.12-.3.34-.55.66-.25.32-.45.58-.61.76-.15.18-.3.34-.45.47-.14.12-.22.35-.22.67-.52.47-.94,1.27-1.26,2.4-.31,1.12-.47,2.29-.47,3.5,0,1.11.16,2.11.5,3.01.33.9.74,1.46,1.23,1.69v.31c.31.37.64.7.99,1.02.36.31.87.58,1.55.82s1.25.42,1.72.56c.47.13.99.25,1.57.34.58.09,1.16.13,1.73.13.34,0,.62-.01.82-.03l1.07-.26c.32-.07.58-.12.77-.15.07-.02.34-.17.8-.45l1.09-.62c.1-.05.17-.1.23-.16.06-.08.09-.17.09-.27v-.12c.05-.1.24-.25.58-.44.33-.19.61-.35.81-.45.2-.11.3-.25.3-.41,0-.13-.02-.24-.06-.32M16.99,101.3c.7-.05,1.58.73,2.62,2.33,1.05,1.6,1.57,3.37,1.57,5.28,0,.97-.09,1.9-.27,2.78-.18.88-.45,1.67-.81,2.4-.77,1.6-1.33,2.63-1.65,3.11-.72,1.06-1.52,1.9-2.42,2.54-.9.63-1.82,1.1-2.77,1.4-.94.29-2,.44-3.17.44-2.8,0-4.3-.25-4.51-.74-.2-.08-.51-.19-.91-.32-.4-.13-.62-.22-.65-.26l-.39-.49c-.35-.09-.54-.13-.56-.13-1.06-.66-1.84-1.57-2.32-2.72C.25,115.76,0,114.13,0,112.03c0-1.62.55-3.51,1.64-5.66.07-.14.13-.32.19-.54.06-.22.18-.39.36-.54.19-.14.29-.26.31-.38.86-.94,1.36-1.52,1.52-1.74.15-.22.52-.44,1.09-.67.57-.23.95-.51,1.13-.83.06-.1.15-.14.26-.11.12.03.21.04.26.04l.12-.03c.07-.09.15-.17.22-.25.08-.07.13-.11.16-.1.04.01.42-.11,1.16-.36.73-.25,1.16-.37,1.27-.34.12.03.55-.02,1.31-.13l.98-.18c.23,0,.51.04.83.11.32.08.54.12.65.14,1.84.19,3.01.47,3.5.83"/>
      <path class="cls-1" d="M37.59,119.72c.17.22.26.48.26.81,0,.41-.06.71-.19.9-.12.2-.26.29-.4.29s-.37-.04-.72-.1c-.35-.07-.52-.17-.52-.3l-.12.23h-.09c-.09,0-.18-.07-.28-.2-.09-.13-.15-.21-.19-.24-.72.12-1.51.18-2.39.18h-2.87c-.41,0-1,.02-1.76.06-.28.25-.45.37-.5.37h-.03c-.27-.18-.65-.27-1.15-.27l-.48.03c-.07.05-.15.12-.23.24-.18-.19-.27-.4-.27-.62,0-.19.04-.41.12-.68.17-.28.24-.78.24-1.49v-.4c.17-1.16.26-2.75.26-4.78l-.03-5.57c0-.25.02-.6.06-1.04.04-.44.06-.76.06-.95l.06-1.74c0-.53-.07-1.1-.22-1.7-.14-.61-.23-.99-.26-1.16l-.2-.21v-.09c0-.68.36-1.03,1.07-1.03.55,0,1,.13,1.36.4.36.27.54.6.54,1.01-.39.54-.58,1.37-.58,2.46l.03,1.41c0,.3-.04.74-.11,1.31-.08.57-.11,1-.11,1.28,0,.17.02.47.06.9.04.43.06.77.06,1.02l-.08,2.01v2.72l-.15,3.13c0,.73.12,1.36.34,1.89.22.02.48.03.77.03.04.09.55.17,1.51.25.97.08,1.67.12,2.11.12,1.16,0,2.04-.13,2.63-.4.04.04.07.06.09.06.05,0,.17-.04.37-.11.2-.08.38-.12.55-.12l.38.08h.98Z"/>
      <path class="cls-1" d="M42.4,121.33c-.97-.09-1.46-.3-1.46-.62,0-.1.04-.21.11-.34.07-.12.13-.26.18-.43.05-.16.12-.73.2-1.68.08-.96.15-2.41.22-4.37.07-1.95.1-4.04.1-6.24l-.21-4.95v-.03c0-.08-.04-.2-.12-.35-.09-.15-.13-.26-.13-.33,0-.03.09-.23.26-.59.17-.37.47-.61.91-.73.43-.13.67-.19.72-.19.1,0,.17.06.21.18.03.11.08.18.14.22.2.17.3.46.3.88,0,.03-.01.15-.05.35-.26,1.68-.39,3.54-.39,5.59l.03,1.15-.14,6.23c0,1.88.13,3.24.4,4.09.26.85.39,1.45.39,1.79,0,.15-.15.28-.43.41-.29.12-.53.18-.73.18h-.09c-.2,0-.33-.07-.41-.21"/>
      <path class="cls-1" d="M68.36,100.73c-2.36,3.74-4.78,8.4-7.29,14.01l-2.26,5.04v.21c0,.37-.12.73-.37,1.11-.24.38-.52.57-.83.59-.19.18-.62.27-1.29.27-.29,0-.47-.13-.54-.38l-.69-2.39c-1.15-3.91-2.07-6.91-2.76-9-.69-2.1-1.3-3.71-1.85-4.83-.56-1.12-.87-1.75-.94-1.87v-.34c-.58-.83-.88-1.26-.88-1.3,0-.09.12-.19.36-.3.24-.11.42-.21.55-.29l.59-.38c.23-.03.42-.1.56-.21l.42.21c.13.79.37,1.76.73,2.89l1.05,3.1c.35.99.63,1.83.84,2.5.33.97.61,1.91.85,2.79.32,1.17.61,2.07.88,2.68l.67,1.63c.2.49.4.88.6,1.18.24.39.53.72.85.98.28-.16.54-.39.78-.68.24-.3.49-.74.74-1.32l4.37-9.78c.74-1.65,1.27-2.89,1.6-3.7.32-.81.49-1.35.49-1.62,0-.08,0-.13-.03-.15.01-.66.31-.99.89-.99h.15c.12,0,.31-.07.56-.2.25-.14.45-.21.59-.21.41,0,.62.24.62.71"/>
      <path class="cls-1" d="M73.6,100.64c.1,0,.32.02.67.06.35.04.67.06.96.06l3.45-.06,1.35.06c.21,0,.59-.04,1.13-.11.55-.07.99-.11,1.33-.11.54,0,.81.14.81.42,0,.02-.04.23-.11.62-.08.39-.19.64-.35.73-.16.1-.39.15-.69.15-.08,0-.39-.02-.91-.06-.76-.45-2.4-.68-4.94-.68-.44,0-.98.01-1.61.04-.63.02-1,.06-1.1.11-.1.05-.21.11-.32.19-.12.47-.25,1.34-.39,2.59-.13,1.25-.2,1.95-.2,2.11,0,.46.07.9.21,1.29s.22.73.25,1.01c.03.27.27.41.72.41h.24c.11,0,.18.01.2.03,0,.01.07.06.21.14.14.09.3.13.49.13s.49-.02.89-.06c.4-.04.71-.06.91-.06.05,0,.14.01.27.03.13.02.23.03.3.03.29,0,.52-.07.69-.21l.82.07c.17-.09.74-.17,1.71-.24.02.06.03.15.03.28,0,.09-.01.23-.03.4-.02.18-.03.3-.03.4,0,.15.01.25.03.32-.14.45-.53.67-1.17.67-.17,0-.46-.07-.86-.22-.4-.15-.83-.22-1.26-.22l-.89.03c-.22,0-.61-.03-1.17-.07-.55-.05-1-.08-1.35-.08h-.44c-.27.17-.46.32-.56.45-.1.12-.21.5-.32,1.13-.11.63-.17,1.3-.17,2.01,0,.51.04,1.27.12,2.3.08,1.03.13,1.82.17,2.36.03.55.07.83.1.85.03.03.1.06.2.1.11.04.19.08.24.13l.89.03c.51,0,1.21-.04,2.1-.11l1.31-.1.42.05c.13,0,.31.01.53.01.86,0,2.13-.18,3.81-.53.3-.16.51-.24.62-.24.12,0,.18.1.18.3l-.15.59.03.53c0,.37-.09.59-.26.67-.17.09-.51.13-1.04.13-.38,0-1-.03-1.83-.09-.89-.16-1.76-.25-2.63-.25l-3.77.06h-.51c-.17-.1-.28-.16-.32-.16-.07,0-.13.03-.17.09-.05.06-.11.08-.21.05-.09-.03-.16-.05-.21-.05-.14,0-.27.06-.39.18-.26.03-.47.12-.62.28h-.11c-.17,0-.31-.08-.42-.23.1-.13.15-.25.15-.36l-.03-.26c0-.13.03-.24.09-.34-.04-.02-.06-.06-.06-.12,0-.05.02-.2.05-.44.2-1.69.3-3.43.3-5.23l-.03-3.03.06-2.13v-.74l.03-4.01c0-.97-.03-1.82-.09-2.54-.17-.59-.25-.96-.25-1.1,0-.1.05-.18.15-.25.1-.07.54-.2,1.3-.4l.06-.2.26.14.21-.06c.27,0,.56.09.87.28"/>
      <path class="cls-1" d="M88.79,121.33c-.97-.09-1.46-.3-1.46-.62,0-.1.04-.21.11-.34.07-.12.13-.26.18-.43.05-.16.12-.73.2-1.68.08-.96.15-2.41.22-4.37.07-1.95.1-4.04.1-6.24l-.21-4.95v-.03c0-.08-.04-.2-.12-.35-.09-.15-.13-.26-.13-.33,0-.03.09-.23.26-.59.17-.37.47-.61.91-.73.43-.13.67-.19.72-.19.1,0,.17.06.21.18.03.11.08.18.14.22.2.17.3.46.3.88,0,.03-.01.15-.05.35-.26,1.68-.39,3.54-.39,5.59l.03,1.15-.14,6.23c0,1.88.13,3.24.4,4.09.26.85.39,1.45.39,1.79,0,.15-.14.28-.43.41-.29.12-.53.18-.73.18h-.09c-.2,0-.33-.07-.41-.21"/>
      <path class="cls-1" d="M112.2,119.1c.11.12.16.28.16.48,0,.36-.17.71-.5,1.05-.32.35-.62.52-.87.52-.18,0-.45-.19-.8-.57l-.87-.85c-.63-.62-1.73-1.4-3.29-2.31-1.56-.92-3.63-2.27-6.23-4.07l-.19-.8v-.12c0-.15.08-.25.24-.29.17-.05.4-.12.72-.23,1.92-.62,3.27-1.36,4.04-2.21.77-.85,1.15-2,1.15-3.44,0-1.72-.5-2.95-1.51-3.69-1-.74-2.15-1.11-3.45-1.11h-.65c-.31,0-.6.09-.85.27-.26.18-.39.64-.39,1.37,0,.35.02.64.04.87.03.23.04.55.04.96l-.18,3.76c0,.59,0,1.06.02,1.4l.05,1.1-.07.68c-.05.53-.07,1.1-.07,1.71,0,.55.08,3.07.25,7.54-.06.07-.13.18-.23.34-.09.15-.17.23-.23.23-.05,0-.12-.04-.21-.11-.63.19-.97.29-1.01.29-.16,0-.31-.11-.47-.32-.15-.21-.23-.52-.23-.95v-.15c.45-.75.68-2.24.68-4.49l-.08-5.54.08-3.98-.03-2.39c0-.35-.04-.82-.11-1.4-.07-.58-.11-.99-.11-1.23,0-.22.04-.39.11-.5.08-.11.2-.18.38-.21.18-.03.51-.07.99-.13.48-.06,1-.08,1.55-.08,1.01,0,1.94.09,2.78.28.83.19,1.64.5,2.41.93.77.43,1.3.9,1.61,1.38.3.49.53.98.68,1.47.15.5.23.97.23,1.43,0,2.64-1.73,4.64-5.2,6.01-.24.18-.37.35-.37.49,0,.24.21.52.62.84.41.32,1.18.83,2.29,1.56.29.14.64.37,1.05.68.4.32.68.53.82.62.42.16.8.37,1.13.63.33.26.6.41.81.46.21.05.34.09.39.12,0,.09.07.19.21.3.37.19.82.48,1.35.87.54.39.91.58,1.13.58.08,0,.15-.02.19-.04"/>
      <path class="cls-1" d="M126.84,112.76c.28-.08.57-.12.88-.12.69-.13,1.04-.32,1.04-.59,0-.02-.58-1.51-1.75-4.46-1.16-2.96-1.92-4.44-2.28-4.44-.25,0-.74.7-1.47,2.1-.73,1.4-1.55,2.84-2.45,4.31-.91,1.47-1.36,2.38-1.36,2.71,0,.23.15.39.45.47.3.08.48.12.53.12l.28-.03c.17,0,.41.03.69.07.29.05.49.08.6.08.24,0,.63-.04,1.18-.12.55-.08.89-.12,1.03-.12s.31.02.52.06c.2.04.33.06.39.06.14,0,.24-.07.3-.22.25.08.48.12.68.12l.47-.03c.11,0,.2.01.27.03M126.12,100.37c.8,2.78,3.34,8.75,7.61,17.91.57.85.86,1.58.86,2.18,0,.14-.05.26-.15.38-.09.11-.45.26-1.06.44-.61.18-1.01.31-1.2.39-.15-.18-.23-.36-.23-.53,0-.15.02-.32.06-.51l.08-.23c0-.33-.17-1.01-.51-2.05-.34-1.04-.9-2.36-1.69-3.96-.08-.04-.17-.15-.25-.34-.08-.19-.3-.28-.64-.28-.19,0-.38.09-.56.28-.03-.08-.24-.15-.63-.22l-.45-.12h-.45c-1.03,0-1.74.06-2.13.17-.4.11-.6.17-.62.17-.14,0-.25-.08-.33-.22-.62.16-1.09.23-1.38.19-.3-.04-.59-.06-.88-.06-.66,0-1.28.08-1.85.23-.57.16-.93.24-1.1.24-.17,0-.32.14-.48.39l-.21-.15c-1.03,2.12-1.79,3.79-2.29,5.01-.06.76-.22,1.4-.48,1.93-.26.53-.49.79-.7.79h-.03c-.35-.14-1.05-.31-2.1-.5-.16-.03-.24-.12-.24-.27,0-.33.18-.64.53-.93.35-.28.55-.51.6-.65.33-.62.64-1.06.91-1.3.36-.43.82-1.14,1.37-2.14.55-.99,1-1.65,1.35-2,.01-.44.49-1.39,1.44-2.85.95-1.46,1.77-2.83,2.47-4.11.7-1.28,1.08-1.97,1.16-2.07,1.41-2,2.11-3.37,2.11-4.09v-.06c.23,0,.35-.05.35-.15v-.15c0-.37.25-.77.74-1.21l.21.09c.26-.33.47-.5.62-.5.19,0,.27.13.27.41,0,.16-.03.31-.09.44"/>
      <path class="cls-1" d="M146,102.83c-.11-.07-.32-.25-.62-.53-.3-.28-.65-.42-1.06-.42-1.61,0-2.88.36-3.8,1.08-.92.72-1.39,1.67-1.39,2.85,0,1.28,1.37,2.64,4.11,4.07.19,0,.39.02.63.06.24.04.63.33,1.19.87.56.54.99,1.02,1.27,1.45.29.43.51.86.67,1.3.15.44.23.88.23,1.31,0,1.91-.45,3.39-1.35,4.44-.9,1.05-2.49,1.99-4.79,2.82-.12-.04-.23-.06-.33-.06-.16,0-.42.09-.76.27-.35.18-1.06.26-2.12.26-.38,0-.65-.16-.81-.47-.15-.32-.23-.79-.23-1.41,0-.17.07-.35.21-.52h.12c.26,0,.54.15.82.47.61.14.99.21,1.13.21.11,0,.59-.05,1.43-.16.84-.1,1.63-.34,2.38-.72.75-.37,1.26-.73,1.54-1.07.27-.34.54-.75.8-1.23.26-.48.39-1.02.39-1.63,0-.92-.28-1.79-.84-2.63-.56-.84-1.18-1.31-1.84-1.44v-.04c0-.18-.23-.39-.68-.65-1.76-.82-3-1.63-3.71-2.42-.71-.79-1.07-1.73-1.07-2.8,0-.43.06-.85.18-1.27.11-.41.28-.81.5-1.18.22-.38.5-.73.83-1.04.32-.32.77-.64,1.32-.96.55-.33.94-.49,1.16-.49h.47s.14-.14.33-.35c.26-.02.56-.1.89-.24.33-.14.54-.23.63-.26.1.06.17.14.21.26.28-.06.57-.09.86-.09h.32c.46,0,.82.06,1.07.19.25.12.38.39.38.79,0,.33-.07.64-.22.92-.15.29-.3.45-.46.48"/>
    </g>
  </g>
</svg>