<?xml version="1.0" encoding="UTF-8"?>
<svg id="Camada_2" data-name="Camada 2" xmlns="http://www.w3.org/2000/svg" viewBox="0 0 298.56 116.13">
  <defs>
    <style>
      .cls-1 {
        fill: #fefefe;
      }
    </style>
  </defs>
  <g id="Camada_1-2" data-name="Camada 1">
    <path class="cls-1" d="M210.77,44.11c1.7-10.54,1.55-21.78,9.06-27.42h37.94l10.88,18.11c1.11,14.89,4.51,15.61,7.93,25.04,3.39,9.36,1.36,14.27-2.58,16.88h-25.35c-2.1-2.69-2.53-7.39-2.06-15.18.2-3.35.15-6.11-.05-8.48-.3-1.38-1.63-6.7-5.69-6.41-4.66.32-4.88,7.47-4.88,7.52-.04,6.49-.12,15.18-1.38,22.55h-17.76c0-.15,0-.3,0-.45h-.02c0-2.61-.96-5.45-3.35-8.42-1.95-2.44-3.34-6.28-4.36-10.78.35-4.05.91-8.38,1.65-12.96M210.25,70.19c-8.21-10.23-7.52-39.28-8.8-48.86-.19-1.4-.85-3.06-1.9-4.64h-18.85c-4.27,7.06-6.8,19.81-8.4,26.31-1.08,4.43-.94,1.91-1.01.12-.3-6.59-.57-9.74-1.13-13.84-.77-5.58-.98-9.62-1.71-12.59h-24.87c-3.16,4.07-5.7,11.66-7.5,19.79-1.75,7.9-2.13,13.69-2.69,19.13,1.42.61,2.83,1.77,4.29,3.71.25.28.45.6.61.94,2.44,3.82,3.65,9.86,3.51,15.25-.01.4-.03.81-.05,1.21h16.18c.59-2.39.86-4.89.91-7.29.39-20.88,1.48-31.59,3.25-31.36,1.8.21,5.37,26.98,8.25,27.33,1.11.14,1.4-.58,1.65-1.12,3.28-7.48,7.61-27.03,8.75-27.15,1.13-.12-.22,21.55,1.13,36.95.08.95.25,1.83.49,2.63h30.37c.13-1.92-.56-4.1-2.51-6.52ZM134.55,61.79c-4.09-5.62-8.23-.75-15.99.72-8.53,1.61-6.92-6.85-6.85-16.87.15-17.13,4.02-20.48,5.05-24.44.49-1.89.54-3.37.27-4.52h-27.88c-2.24,3.39.31,10.41-.36,17.73-.14,1.58-.29,3.17-.44,4.75.18,1.42.38,2.85.61,4.31,2.15,13.29,2.82,24.64,1.22,33.24h47.5c.38-5.32-.73-11.56-3.18-14.92h.05ZM84.95,44.11c-1.7-10.54-1.55-21.78-9.06-27.42H30.02c-3.54,2.65-2.34,7.02-2.8,15.72-.82,15.43-3.77,17.28-6.96,24.61l11.84,19.69h14.97c2.1-2.69,2.53-7.39,2.06-15.18-.2-3.35-.15-6.11.05-8.48.3-1.38,1.63-6.7,5.69-6.41,4.66.32,4.88,7.47,4.88,7.52.04,6.49.12,15.18,1.38,22.55h24.91c1.7-8.18,1.06-19.34-1.08-32.6ZM62.58,27.19c-.69,2.29-2.88,4.41-6.8,4.8-6.7.67-7.07-2.12-7.02-4.51.05-2.39.94-4.32,7.24-4.16,3.92.09,7.29,1.53,6.58,3.87ZM233.15,27.19c.69,2.29,2.88,4.41,6.8,4.8,6.7.67,7.07-2.12,7.02-4.51-.05-2.39-.94-4.32-7.24-4.16-3.92.09-7.29,1.53-6.58,3.87Z"/>
    <path class="cls-1" d="M298.56,40.88v52.53H26.52l-3.67-5.99h269.73V31.11l5.99,9.77ZM2.99,0h270.51l3.67,5.99H5.99v53.93L0,50.15V0h2.99Z"/>
    <path class="cls-1" d="M235.84,112.28l2.64-4.9,2.62,4.9h-5.26ZM231.94,115.86h1.97l1.19-2.21h6.73l1.19,2.21h1.95l-5.34-9.68h-2.32l-5.37,9.68ZM211.93,110.84v-3.17h5.2c1.47,0,2.27.38,2.27,1.54s-.79,1.62-2.27,1.62h-5.2ZM210.1,115.86h1.83v-3.52h6.16c.87,0,1.31.37,1.31,1.24v2.28h1.82v-2.54c0-1.15-.78-1.82-1.95-1.86,1.32-.34,2.02-1.22,2.02-2.5,0-1.82-1.2-2.79-3.77-2.79h-7.41v9.68ZM188.25,111.01c0-2.09,1.71-3.54,4.52-3.54s4.52,1.45,4.52,3.54-1.72,3.56-4.52,3.56-4.52-1.45-4.52-3.56ZM192.77,116.13c3.91,0,6.4-2.02,6.4-5.12s-2.5-5.08-6.4-5.08-6.42,1.99-6.42,5.08,2.5,5.12,6.42,5.12ZM165.36,107.74h4.68v8.12h1.82v-8.12h4.67v-1.56h-11.17v1.56ZM148.92,116.13c4.19,0,5.64-2.03,5.64-5v-4.96h-1.83v4.9c0,1.75-.71,3.5-3.81,3.5s-3.82-1.73-3.82-3.5v-4.9h-1.83v4.96c0,2.96,1.45,5,5.65,5ZM122.77,114.3v-6.57h3.77c2.39,0,3.93,1.3,3.93,3.28s-1.54,3.29-3.93,3.29h-3.77ZM120.94,115.86h6.31c2.94,0,5.11-2.06,5.11-4.85s-2.17-4.83-5.11-4.83h-6.31v9.68ZM99.09,111.01c0-2.09,1.71-3.54,4.52-3.54s4.52,1.45,4.52,3.54-1.72,3.56-4.52,3.56-4.52-1.45-4.52-3.56ZM103.61,116.13c3.9,0,6.4-2.02,6.4-5.12s-2.5-5.08-6.4-5.08-6.42,1.99-6.42,5.08,2.5,5.12,6.42,5.12ZM77.19,110.84v-3.17h5.2c1.47,0,2.27.38,2.27,1.54s-.79,1.62-2.27,1.62h-5.2ZM75.36,115.86h1.83v-3.52h6.16c.87,0,1.31.37,1.31,1.24v2.28h1.82v-2.54c0-1.15-.78-1.82-1.95-1.86,1.32-.34,2.02-1.22,2.02-2.5,0-1.82-1.2-2.79-3.77-2.79h-7.41v9.68ZM55.42,111.57v-3.84h4.78c1.43,0,2.35.56,2.35,1.91s-.91,1.93-2.35,1.93h-4.78ZM53.59,115.86h1.83v-2.74h5.16c2.36,0,3.85-1.32,3.85-3.47s-1.49-3.47-3.85-3.47h-6.99v9.68Z"/>
  </g>
</svg>